<?xml version="1.0" standalone="no"?>
<!DOCTYPE svg PUBLIC "-//W3C//DTD SVG 20010904//EN"
 "http://www.w3.org/TR/2001/REC-SVG-20010904/DTD/svg10.dtd">
<svg version="1.0" xmlns="http://www.w3.org/2000/svg"
 width="1024.000000pt" height="1024.000000pt" viewBox="0 0 1024.000000 1024.000000"
 preserveAspectRatio="xMidYMid meet">

<g transform="translate(0.000000,1024.000000) scale(0.100000,-0.100000)"
fill="#000000" stroke="none">
<path d="M3535 9298 c-104 -11 -114 -14 -238 -73 -60 -28 -98 -56 -156 -114
-42 -42 -87 -92 -101 -111 -13 -19 -27 -37 -30 -40 -3 -3 -16 -27 -29 -55 -13
-27 -28 -58 -33 -67 -4 -10 -8 -29 -8 -42 0 -14 -4 -28 -10 -31 -5 -3 -10 -30
-10 -58 -1 -90 9 -87 -286 -95 -344 -8 -1268 -6 -1421 3 -105 7 -126 6 -158
-9 -50 -24 -103 -78 -110 -112 -3 -16 -10 -43 -16 -61 -7 -22 -7 -57 1 -110 7
-53 9 -561 7 -1578 -1 -825 0 -1515 3 -1533 3 -18 8 -33 12 -32 4 0 9 639 10
1420 3 1411 3 1421 23 1426 32 8 1903 0 1911 -8 4 -4 8 -28 8 -53 1 -38 -4
-48 -30 -72 -27 -24 -34 -39 -43 -100 -6 -39 -11 -115 -11 -167 0 -93 1 -96
23 -96 42 0 67 -12 67 -31 0 -26 -26 -35 -45 -15 -20 19 -18 19 -125 17 -64
-2 -96 -7 -128 -23 -52 -26 -92 -64 -92 -89 0 -10 -4 -21 -10 -24 -5 -3 -10
-21 -10 -40 0 -19 -4 -37 -10 -40 -5 -3 -10 -17 -10 -30 0 -13 -4 -27 -10 -30
-5 -3 -10 -19 -10 -35 0 -16 -4 -31 -9 -34 -5 -3 -12 -22 -15 -41 -3 -19 -9
-51 -12 -70 -3 -19 -10 -38 -15 -41 -5 -3 -9 -16 -9 -29 0 -13 -4 -27 -10 -30
-5 -3 -10 -19 -10 -35 0 -16 -4 -32 -10 -35 -5 -3 -10 -17 -10 -31 0 -13 -4
-32 -9 -42 -5 -9 -15 -37 -21 -62 -7 -25 -16 -54 -20 -65 -4 -11 -22 -67 -39
-125 -18 -58 -36 -113 -41 -122 -6 -10 -10 -27 -10 -37 0 -11 -4 -23 -10 -26
-5 -3 -10 -16 -10 -27 0 -20 -12 -63 -30 -113 -4 -11 -13 -40 -20 -65 -7 -25
-16 -54 -20 -65 -4 -11 -13 -40 -20 -65 -7 -25 -16 -54 -20 -65 -4 -11 -13
-40 -20 -65 -7 -25 -16 -56 -20 -70 -4 -14 -13 -43 -19 -65 -6 -22 -24 -87
-41 -145 -18 -58 -41 -136 -52 -175 -11 -38 -24 -80 -29 -93 -5 -13 -9 -34 -9
-47 0 -13 -4 -26 -9 -29 -5 -3 -11 -20 -14 -38 -7 -47 -15 -80 -26 -103 -5
-11 -14 -40 -21 -65 -7 -25 -20 -70 -30 -100 -10 -30 -23 -80 -31 -110 -7 -30
-16 -59 -21 -65 -4 -5 -8 -25 -8 -45 0 -37 -22 -94 -47 -118 -17 -18 -52 6
-87 58 -37 56 -199 170 -241 170 -9 0 -24 4 -35 10 -11 6 -29 15 -40 20 -11 6
-28 10 -38 10 -31 0 -105 41 -160 89 -89 76 -119 105 -124 121 -3 9 -16 14
-36 12 -18 -1 -51 7 -74 18 -31 15 -62 20 -121 20 -70 0 -84 -3 -112 -24 -45
-34 -67 -86 -66 -156 0 -90 24 -146 99 -235 73 -89 81 -120 45 -186 -44 -80
-51 -158 -28 -319 10 -67 69 -196 136 -295 26 -38 55 -79 66 -90 34 -37 61
-80 76 -125 11 -30 16 -37 17 -22 0 21 5 19 63 -26 67 -51 235 -141 302 -162
22 -7 59 -23 82 -36 23 -13 48 -24 57 -24 8 0 17 -3 19 -7 7 -11 -96 -256
-108 -260 -5 -1 -32 36 -59 84 -58 102 -172 221 -262 272 -104 60 -104 60
-104 88 l0 27 -16 -22 c-20 -29 -33 -28 -80 8 -21 16 -43 30 -49 30 -5 0 -21
9 -35 20 -14 11 -33 20 -42 20 -10 0 -18 5 -18 10 0 6 -9 10 -19 10 -11 0 -23
5 -26 10 -3 6 -17 10 -30 10 -13 0 -26 4 -29 8 -7 12 -162 23 -208 16 -44 -8
-91 -49 -111 -96 -35 -82 -23 -531 14 -554 5 -3 9 -14 9 -25 0 -10 9 -41 21
-67 27 -61 54 -121 78 -175 11 -23 25 -57 33 -75 7 -17 16 -32 20 -32 5 0 8
-6 9 -12 0 -14 20 -44 87 -132 43 -57 171 -160 245 -197 37 -19 39 -22 32 -56
-6 -33 -23 -72 -36 -83 -3 -3 -33 -45 -66 -95 -34 -49 -69 -99 -80 -110 -28
-30 -83 -112 -83 -124 0 -6 -4 -11 -10 -11 -5 0 -10 -5 -10 -11 0 -18 -59 -98
-116 -156 -30 -31 -54 -59 -54 -63 0 -4 -11 -20 -25 -36 -14 -16 -25 -33 -25
-37 0 -5 -15 -32 -33 -60 -19 -29 -41 -64 -50 -79 -22 -35 -23 -114 -2 -122
24 -9 27 -4 29 49 2 76 50 162 178 315 141 168 379 510 620 890 l58 91 42 -22
c83 -42 83 -39 21 -142 -31 -51 -108 -163 -172 -250 -64 -87 -146 -204 -183
-260 -36 -56 -94 -136 -127 -179 -111 -141 -211 -301 -211 -338 0 -6 36 42 80
107 43 65 111 158 149 206 39 48 87 116 108 150 40 66 138 204 213 302 70 90
143 202 180 275 18 36 34 67 36 69 2 2 20 -10 42 -27 21 -17 50 -36 65 -43 29
-13 34 -24 14 -32 -7 -3 -46 -54 -86 -113 -41 -60 -91 -129 -111 -154 -21 -25
-85 -115 -143 -200 -58 -85 -132 -192 -164 -238 -32 -46 -74 -107 -93 -136
-49 -75 -173 -237 -199 -260 -25 -22 -29 -45 -4 -25 15 13 16 11 10 -20 -4
-18 -7 -38 -7 -44 0 -6 -38 -8 -105 -5 l-105 5 0 -28 c0 -17 7 -32 18 -37 10
-5 1443 -10 3435 -10 3630 -2 3458 -4 3497 43 14 17 12 18 -37 12 -31 -4 -53
-2 -53 3 0 6 10 10 23 10 12 0 69 23 126 51 87 42 117 64 181 128 91 91 164
205 195 304 44 137 47 215 41 1051 l-6 784 27 7 c46 10 136 78 170 128 57 85
67 220 22 308 -27 55 -82 113 -140 151 -27 17 -49 33 -49 34 0 1 15 -2 33 -7
41 -12 230 -39 274 -39 26 0 33 -4 33 -19 0 -11 4 -22 9 -26 14 -8 15 -2656 1
-2687 -10 -22 -67 -48 -103 -48 -30 0 -79 -34 -124 -85 -27 -30 -61 -58 -76
-64 -16 -6 -101 -11 -190 -12 -97 0 -186 -6 -222 -14 -52 -11 123 -13 1235
-14 734 0 1301 3 1309 8 8 5 11 16 8 26 -6 14 -26 16 -166 14 -120 -2 -163 1
-175 10 -10 8 -28 11 -46 7 -17 -3 -30 -2 -30 3 0 4 24 30 52 58 142 134 198
216 198 291 0 39 -13 63 -42 78 -15 8 -13 15 18 64 40 63 41 69 13 104 -21 26
-65 35 -84 17 -6 -5 -32 -11 -58 -14 l-48 -5 8 57 c11 81 7 265 -7 341 -14 80
-43 146 -77 183 -21 21 -36 27 -70 27 -24 0 -51 -6 -59 -12 -38 -32 -71 -69
-83 -95 -7 -15 -17 -36 -22 -45 -5 -10 -9 -29 -9 -42 0 -14 -4 -27 -9 -30 -5
-3 -11 -20 -14 -38 -3 -18 -11 -53 -17 -78 -20 -81 -31 -134 -43 -213 l-12
-79 -21 29 c-12 15 -48 42 -82 58 -48 24 -61 36 -66 59 -9 43 -7 986 2 986 4
0 15 -9 25 -20 27 -32 106 -28 147 7 37 30 70 100 71 147 1 76 -21 547 -31
644 -16 161 -56 378 -85 462 -27 79 -80 176 -124 224 -48 53 -168 136 -196
136 -17 0 -78 31 -87 44 -19 28 -7 53 32 71 96 43 172 170 178 297 5 100 -23
165 -105 246 -60 59 -75 66 -203 92 -30 6 -82 20 -115 30 -100 31 -129 34
-168 15 -25 -11 -42 -30 -56 -61 -26 -55 -26 -80 -1 -139 21 -49 26 -104 11
-133 -45 -90 -51 -108 -51 -162 0 -97 49 -179 130 -215 81 -36 31 -64 -155
-87 -101 -12 -328 -14 -392 -3 -67 11 -93 49 -93 134 l0 68 39 7 c82 13 189
113 212 199 18 66 7 204 -20 256 -30 58 -104 136 -144 152 -18 7 -45 25 -60
40 -26 25 -28 33 -25 94 l3 66 896 2 896 2 11 -25 c6 -17 9 -319 6 -900 -3
-811 0 -1010 14 -995 11 11 20 2481 14 4062 l-2 713 -36 39 c-60 68 -86 71
-479 64 -187 -3 -376 -6 -420 -7 -147 -2 -859 15 -882 20 -18 5 -23 13 -23 40
0 41 -44 182 -77 249 -36 71 -126 189 -170 222 -21 15 -40 30 -43 33 -3 3 -15
11 -27 18 -13 6 -33 18 -45 25 -13 6 -25 14 -28 17 -3 3 -18 11 -35 19 -16 7
-38 17 -47 22 -10 5 -30 9 -46 9 -15 0 -33 5 -39 11 -9 9 -478 12 -1835 13
-1003 1 -1850 -2 -1883 -6z m3705 -189 c123 -33 260 -140 313 -245 27 -54 62
-172 72 -246 l6 -48 -38 -1 c-21 -1 -1045 -2 -2277 -4 l-2239 -3 7 61 c19 187
145 383 288 450 113 53 145 57 500 57 l328 0 0 -56 c0 -124 51 -210 137 -233
48 -13 1818 -18 1869 -5 88 22 149 99 166 211 6 38 12 74 14 82 4 11 66 13
392 7 340 -6 396 -10 462 -27z m-1585 -43 c18 -13 18 -14 -1 -19 -10 -3 -169
-9 -351 -12 -326 -7 -333 -7 -333 12 0 11 3 23 7 26 3 4 153 7 333 7 261 0
330 -3 345 -14z m-3042 -495 l287 -1 0 -245 0 -245 -965 0 -965 0 -2 138 c-4
245 1 281 51 326 11 10 35 21 52 25 28 6 483 6 1542 2z m6948 -40 l39 -44 0
-203 0 -204 -890 0 -890 0 0 248 0 247 851 0 851 0 39 -44z m-2343 -19 l422
-2 0 -1792 -1 -1793 -25 30 c-14 17 -39 57 -56 90 -42 82 -88 151 -148 219
-51 58 -60 80 -37 89 6 3 3 6 -9 6 -11 1 -33 15 -49 31 -37 38 -66 38 -99 -1
-30 -36 -28 -54 16 -142 28 -56 28 -60 11 -73 -13 -11 -35 -13 -84 -8 -73 6
-95 -1 -142 -45 -43 -40 -57 -74 -58 -146 -1 -57 2 -70 26 -101 61 -79 184
-87 249 -15 18 20 19 20 56 1 36 -19 90 -72 90 -91 0 -4 -11 -16 -24 -25 -22
-14 -98 -16 -708 -15 -648 0 -683 1 -707 19 -14 10 -34 30 -45 45 -19 26 -20
44 -23 460 -1 238 -6 444 -11 457 -15 41 -21 -88 -24 -516 l-3 -391 28 -36
c52 -69 11 -65 779 -69 694 -3 696 -3 725 18 l28 21 64 -96 c35 -53 87 -125
115 -161 l51 -65 5 -100 c4 -72 0 -124 -12 -185 -23 -114 -22 -187 2 -259 20
-57 21 -76 18 -967 -4 -1004 0 -946 -68 -1093 -34 -72 -145 -190 -220 -234
-105 -61 10 -57 -2005 -58 -1794 0 -1842 0 -1902 19 -74 23 -144 73 -212 149
-62 70 -103 147 -130 245 l-21 78 0 2192 c0 1254 4 2326 10 2503 7 202 7 336
0 385 -5 42 -10 372 -10 747 l0 673 543 2 c549 3 2818 3 3595 0z m2392 -506
c5 -13 10 -183 11 -377 l2 -353 -23 -18 c-21 -17 -65 -18 -881 -18 -630 0
-865 3 -884 12 l-25 11 0 377 c0 207 3 380 7 383 3 4 406 7 895 7 l888 0 10
-24z m-6723 -308 c-2 -13 -4 -3 -4 22 0 25 2 35 4 23 2 -13 2 -33 0 -45z m-46
-278 c90 -59 132 -127 176 -291 27 -101 28 -112 27 -344 -1 -241 -7 -304 -45
-485 -28 -128 -47 -193 -63 -215 -13 -18 -17 -18 -70 -3 -72 20 -69 7 10 -47
58 -40 59 -42 58 -85 -1 -53 -15 -138 -45 -270 -19 -87 -41 -245 -40 -296 0
-12 12 -45 26 -75 l25 -54 0 -1580 c0 -1556 0 -1581 -20 -1635 -11 -30 -34
-75 -52 -99 -17 -24 -37 -60 -44 -80 -7 -21 -22 -41 -37 -49 -23 -11 -32 -8
-109 40 -45 28 -139 86 -208 128 -164 100 -301 188 -485 310 -156 103 -296
193 -540 345 -80 50 -149 95 -155 101 -10 10 5 46 125 299 18 39 37 81 40 94
11 38 142 303 163 330 l19 23 13 -46 c7 -26 17 -49 21 -52 5 -3 4 7 -1 22 -29
75 -41 471 -20 644 17 137 67 378 98 470 16 47 35 110 42 140 6 30 25 98 41
150 15 52 39 136 53 185 13 50 47 170 75 268 28 98 58 208 67 245 8 37 28 103
44 147 16 44 37 109 45 145 23 92 70 246 115 375 55 158 85 256 115 370 14 55
42 149 63 208 l38 109 65 1 c54 2 73 7 106 30 46 32 92 93 116 155 22 55 47
200 47 270 0 51 -3 58 -40 93 -45 43 -39 51 38 44 38 -2 68 -13 103 -35z
m-186 -15 c22 -21 25 -33 25 -97 0 -104 -29 -249 -63 -315 -28 -54 -177 -111
-177 -69 0 19 94 368 115 426 17 49 41 80 62 80 8 0 25 -11 38 -25z m6807
-202 l136 -6 4 -156 c2 -86 4 -157 3 -158 -1 -1 -401 -4 -891 -5 l-889 -3 -3
162 -2 163 277 3 c651 6 1239 7 1365 0z m146 -388 c2 -2 4 -243 5 -535 l2
-532 -26 -22 -26 -23 -809 -6 c-445 -3 -828 -3 -851 0 l-42 6 1 436 c1 259 -3
470 -9 521 -6 47 -8 102 -6 122 l5 38 797 3 c722 3 950 1 959 -8z m-6708
-1375 c0 -33 -4 -60 -10 -60 -11 0 -13 42 -4 89 10 47 14 38 14 -29z m4943
-12 c182 -96 230 -354 86 -466 -20 -16 -106 -52 -124 -52 -3 0 -5 119 -5 265
0 181 3 265 11 265 6 0 20 -5 32 -12z m688 -49 c47 -20 94 -32 142 -36 120
-10 153 -31 235 -153 35 -52 37 -59 37 -135 -1 -82 -11 -114 -59 -178 -27 -38
-101 -81 -126 -74 -18 5 -20 0 -20 -59 0 -35 7 -82 16 -104 15 -37 15 -42 0
-65 -23 -36 -56 -54 -107 -61 -56 -8 -102 13 -124 57 -17 32 -17 34 38 147 13
27 -2 42 -42 42 -41 0 -109 47 -132 91 -37 74 -36 123 6 216 l37 81 39 -13
c21 -8 65 -17 98 -21 l60 -6 6 -47 c7 -50 24 -101 34 -101 3 0 16 16 29 35 12
19 29 35 37 35 23 0 47 -44 39 -74 -8 -35 -27 -48 -69 -48 -40 0 -42 -4 -18
-30 26 -28 70 -23 104 13 24 26 29 40 29 83 0 70 -26 100 -79 92 -87 -13 -86
-13 -89 17 -2 15 4 34 13 43 28 29 11 39 -76 45 -47 3 -98 13 -115 22 -44 23
-84 73 -84 105 1 40 36 112 55 112 9 0 48 -14 86 -31z m-1145 -176 c36 -45 88
-124 117 -175 29 -51 73 -118 97 -149 25 -31 72 -93 104 -138 99 -136 118
-146 319 -167 l57 -5 0 -43 c0 -40 -19 -208 -25 -214 -5 -6 -213 29 -256 44
-25 8 -60 25 -78 38 -65 48 -198 232 -285 394 -48 91 -54 97 -110 126 -67 34
-120 96 -110 130 11 38 22 41 64 17 30 -17 49 -21 71 -16 29 7 31 10 26 41 -3
19 -28 74 -56 122 -27 48 -53 101 -56 117 l-6 30 31 -35 c17 -19 61 -72 96
-117z m-6569 -82 c45 -21 154 -94 244 -164 50 -38 176 -96 269 -122 85 -25
156 -78 261 -196 l61 -69 -31 -123 c-46 -182 -59 -265 -73 -434 -6 -84 -15
-150 -18 -146 -4 5 -16 31 -28 60 -11 29 -56 108 -100 175 -117 181 -116 180
-102 247 15 70 26 403 14 424 -6 11 -14 13 -24 7 -11 -7 -16 -45 -21 -172 -4
-90 -10 -184 -14 -209 l-7 -46 -135 201 c-218 322 -374 505 -398 466 -3 -5 17
-37 45 -72 141 -178 302 -401 395 -548 26 -41 63 -99 82 -128 19 -29 33 -55
31 -57 -1 -1 -85 4 -186 12 -100 9 -185 14 -188 11 -2 -3 -2 -12 2 -21 8 -21
31 -24 228 -37 88 -6 163 -13 168 -17 12 -7 128 -186 150 -230 9 -18 13 -33
10 -33 -4 0 -79 9 -167 20 -193 24 -215 24 -215 6 0 -18 72 -34 200 -46 129
-12 200 -27 221 -46 26 -23 37 -65 49 -179 9 -84 8 -101 -4 -114 -12 -11 -21
-12 -39 -4 -13 6 -59 21 -103 33 -224 63 -404 191 -529 379 -109 165 -160 291
-171 429 -8 98 5 147 56 205 22 25 40 50 40 56 0 7 -32 51 -70 99 -121 148
-154 244 -114 327 33 71 125 95 211 56z m6345 3 c3 -3 -1 -27 -10 -53 -19 -60
-13 -85 34 -140 36 -42 37 -44 19 -57 -11 -8 -43 -14 -76 -14 -47 0 -63 5 -88
26 -39 32 -57 92 -41 138 10 32 62 89 90 99 20 7 65 8 72 1z m145 -26 c13 -12
23 -26 23 -31 0 -10 -59 34 -59 46 -1 13 12 8 36 -15z m1153 -503 c0 -9 9 -33
20 -54 28 -57 105 -89 184 -77 60 9 123 53 143 98 9 21 21 38 26 38 5 0 36
-14 68 -31 65 -35 152 -120 192 -190 34 -57 90 -220 80 -230 -5 -3 -33 -14
-63 -24 -30 -10 -72 -26 -92 -36 -21 -11 -39 -19 -42 -19 -2 0 -12 33 -21 73
-10 39 -22 80 -27 90 -15 28 -31 8 -25 -32 3 -20 13 -88 22 -151 9 -63 25
-164 35 -225 20 -112 40 -312 40 -398 l0 -47 -382 2 -383 3 4 440 c5 507 9
481 -80 469 l-49 -7 5 44 c2 24 7 88 11 142 7 112 -12 99 164 120 160 20 170
20 170 2z m-595 -395 c121 -83 161 -245 91 -364 -31 -53 -116 -103 -159 -92
-35 9 -91 67 -122 129 -51 102 -27 266 50 343 34 33 75 29 140 -16z m1352
-245 c37 -222 65 -734 44 -810 -12 -48 -64 -105 -94 -105 -34 0 -57 29 -57 72
0 40 -14 78 -29 78 -5 0 -14 -20 -20 -44 -11 -46 -36 -65 -57 -44 -16 17 -3
94 27 155 19 40 21 55 15 166 -10 172 -25 337 -42 442 -7 50 -14 107 -14 127
l0 37 93 30 c50 17 97 29 102 27 6 -1 20 -60 32 -131z m-8565 -254 c57 -23
135 -62 173 -87 39 -25 117 -69 175 -97 145 -71 218 -144 289 -284 28 -57 51
-111 51 -122 0 -10 -11 -39 -25 -64 -14 -24 -36 -76 -49 -114 -20 -60 -51
-129 -62 -142 -2 -2 -10 2 -19 9 -9 8 -29 10 -50 7 -34 -6 -36 -3 -100 79 -36
46 -79 110 -97 142 -18 31 -36 59 -40 63 -4 3 1 23 12 44 17 34 20 59 20 192
0 144 -1 153 -21 163 -11 7 -23 9 -26 6 -4 -3 -7 -63 -9 -132 -3 -146 -11
-204 -28 -204 -6 0 -38 37 -71 83 -106 146 -296 376 -316 382 -72 23 -17 -71
194 -329 91 -112 210 -276 205 -282 -2 -1 -73 1 -158 5 -85 4 -163 5 -172 3
-20 -5 -24 -37 -6 -48 6 -4 94 -10 196 -14 l185 -6 29 -35 c15 -19 51 -67 78
-107 l49 -74 -34 -46 c-18 -26 -53 -83 -77 -127 -56 -101 -71 -125 -79 -125
-18 0 -217 161 -265 214 -59 66 -118 176 -205 385 -67 162 -91 278 -92 446 -1
112 2 136 20 177 46 102 136 113 325 39z m8137 -423 c30 -37 53 -48 109 -57
l46 -6 -3 -67 c-2 -68 -2 -68 32 -88 l35 -21 7 -487 c4 -268 10 -585 13 -704
l7 -217 -131 2 -132 2 -6 75 c-4 41 -9 102 -12 135 -6 69 -33 325 -39 370 -2
17 -7 64 -10 105 -4 41 -18 161 -31 265 -14 105 -34 256 -44 336 -30 233 -34
249 -74 281 -43 35 -44 21 -12 -129 23 -104 22 -239 -3 -358 -19 -97 -23 -158
-58 -967 l-6 -128 -123 0 -124 0 0 846 0 846 30 -7 c18 -4 53 0 87 10 45 14
83 16 168 13 61 -3 137 -2 170 1 46 5 62 3 70 -7 6 -8 21 -28 34 -44z m144 52
l58 0 -16 -30 c-17 -32 -42 -38 -88 -21 -48 19 -79 69 -34 57 12 -3 48 -6 80
-6z m-318 -720 c9 -80 20 -181 25 -225 5 -44 18 -152 29 -240 20 -150 51 -537
51 -624 0 -38 0 -39 -39 -39 -43 -1 -93 -22 -128 -55 l-23 -20 0 39 c0 49 25
594 45 989 8 165 15 309 16 320 1 38 8 -1 24 -145z m-7131 -97 c28 -20 55 -40
59 -43 5 -4 -18 -38 -51 -76 -70 -82 -207 -265 -227 -304 -15 -28 -111 -170
-202 -295 -145 -201 -244 -343 -255 -365 -6 -14 -23 -40 -36 -57 -22 -32 -26
-33 -93 -33 -68 0 -70 1 -63 23 14 46 46 99 110 182 35 47 81 112 101 143 20
31 58 85 85 120 27 34 70 95 95 135 26 39 76 113 113 162 36 50 89 122 117
160 29 39 77 104 107 145 31 41 61 90 68 108 7 17 14 32 16 32 2 0 27 -17 56
-37z m8047 -19 c60 -31 109 -193 109 -363 0 -121 -15 -194 -58 -276 -76 -147
-91 -182 -111 -260 -11 -44 -22 -116 -26 -159 -3 -43 -8 -83 -11 -87 -3 -5
-19 -9 -35 -9 -17 0 -28 4 -24 9 3 5 12 58 20 118 8 59 24 158 35 218 36 207
62 370 70 445 23 205 20 344 -5 319 -3 -4 -12 -80 -21 -170 -8 -90 -23 -215
-35 -278 -11 -63 -29 -181 -40 -263 -27 -202 -58 -334 -60 -252 0 16 0 72 1
124 1 75 -5 114 -25 183 -41 141 -33 257 31 472 41 137 61 179 99 218 32 31
45 33 86 11z m-7902 -72 l43 -38 -79 -110 c-43 -60 -91 -129 -107 -154 -16
-25 -65 -91 -108 -148 -42 -56 -87 -121 -99 -144 -24 -46 -100 -164 -181 -278
-71 -100 -131 -200 -125 -207 3 -3 25 23 49 56 24 34 81 112 126 174 46 61
108 153 138 203 30 51 78 123 107 160 30 38 81 110 113 159 33 50 77 112 98
139 20 27 48 71 62 98 13 26 28 48 33 48 13 0 101 -70 101 -80 0 -10 -104
-165 -185 -275 -120 -163 -371 -538 -422 -632 l-35 -63 -189 0 -189 0 21 43
c20 40 50 82 230 322 42 55 134 186 205 290 190 278 253 366 290 408 19 20 34
44 34 52 0 24 22 17 69 -23z m253 -170 l48 -34 -17 -31 c-15 -31 -31 -55 -151
-226 -57 -82 -122 -180 -239 -361 -41 -63 -98 -149 -127 -190 l-53 -75 -81 -3
-82 -3 90 138 c115 175 248 367 332 480 106 142 197 286 204 320 7 36 5 36 76
-15z m322 -225 c-20 -35 -167 -258 -195 -297 -18 -25 -79 -115 -137 -200 -133
-199 -134 -200 -223 -200 -38 0 -69 2 -69 5 0 7 130 200 263 390 179 255 247
371 230 389 -4 3 -55 -67 -115 -157 -273 -405 -346 -517 -373 -565 -33 -60
-42 -64 -142 -60 l-72 3 102 142 c56 78 132 188 170 245 37 57 110 164 162
238 110 156 135 200 135 234 0 23 9 18 135 -65 89 -59 133 -94 129 -102z m94
-40 c28 -22 52 -43 52 -47 0 -11 -226 -343 -277 -407 -22 -29 -57 -81 -77
-117 -20 -36 -46 -70 -57 -76 -10 -6 -53 -10 -95 -8 l-75 3 59 80 c95 130 355
511 380 557 12 24 20 49 17 56 -6 16 3 11 73 -41z m626 -94 c9 -28 16 -58 16
-65 0 -32 103 -218 151 -271 81 -91 210 -173 334 -213 l70 -22 -57 -1 c-34 -1
-58 -6 -60 -13 -3 -9 -84 -12 -311 -12 -284 -1 -308 0 -313 17 -3 10 -15 17
-30 17 -23 0 -20 7 54 118 135 200 137 209 59 276 l-54 46 55 112 c49 99 56
110 63 88 4 -14 14 -48 23 -77z m6254 30 c112 -120 133 -186 136 -425 l3 -168
-29 0 c-36 0 -104 63 -75 68 14 3 16 10 11 40 -9 59 -34 131 -75 219 -43 94
-60 147 -29 91 11 -21 23 -38 26 -38 12 0 -6 82 -30 132 -25 52 -34 117 -19
131 14 15 29 5 81 -50z m-6737 -30 c27 -20 49 -42 49 -48 0 -6 -16 -33 -35
-60 -20 -28 -62 -90 -95 -140 -32 -49 -84 -124 -114 -166 -31 -42 -61 -91 -67
-107 -9 -28 -16 -31 -62 -37 -29 -4 -73 -5 -100 -3 l-47 3 46 70 c26 39 77
111 114 160 91 123 240 344 240 355 0 19 23 10 71 -27z m7353 31 c9 -3 16 -17
16 -30 0 -20 -19 -46 -127 -173 -12 -14 -22 -38 -23 -53 0 -15 -9 -43 -20 -63
-30 -54 -16 -42 35 29 38 54 82 96 99 96 14 0 36 -35 36 -57 0 -64 -107 -205
-231 -303 -37 -29 -60 -40 -85 -40 -40 0 -44 17 -13 61 11 16 16 29 10 29 -6
0 -11 -4 -11 -10 0 -5 -5 -10 -11 -10 -7 0 -9 9 -5 23 3 12 15 67 27 122 12
55 28 113 35 128 8 15 12 33 8 40 -4 7 -4 9 1 5 4 -4 20 9 35 30 54 74 121
140 162 161 24 12 44 21 45 21 1 0 8 -3 17 -6z m-7173 -154 c18 -14 17 -17
-23 -72 -23 -31 -79 -117 -125 -190 -123 -198 -100 -178 -198 -178 -47 0 -85
3 -85 7 0 9 224 345 282 422 26 35 48 70 48 78 0 10 14 3 41 -19 23 -18 50
-40 60 -48z m77 -44 c69 -43 69 -42 -10 -147 -39 -52 -95 -129 -125 -171 l-55
-78 -55 0 -55 0 15 23 c9 12 28 42 43 67 15 25 65 104 110 176 46 73 84 137
84 143 0 16 6 14 48 -13z m116 -89 c8 -12 5 -21 -9 -37 -11 -12 -56 -77 -100
-144 -77 -116 -82 -121 -117 -124 -21 -2 -38 1 -38 6 0 13 75 118 138 192 30
36 64 80 75 98 20 34 34 37 51 9z m6318 -28 c30 -54 61 -156 52 -170 -3 -6
-18 3 -35 20 -32 34 -37 26 -14 -18 8 -16 21 -47 29 -70 l14 -42 -46 3 -47 3
1 55 c1 30 3 96 4 145 1 81 7 132 15 123 1 -2 14 -24 27 -49z m-655 -159 l2
-120 -245 0 c-231 0 -244 1 -244 19 0 10 12 30 26 45 24 23 35 26 108 28 83 2
108 3 186 8 44 3 44 3 -15 9 l-60 6 -3 63 -3 62 123 0 123 0 2 -120z m553 55
l0 -65 -114 0 c-63 0 -121 3 -130 6 -12 5 -16 21 -16 65 l0 59 130 0 130 0 0
-65z m5 -130 l0 -40 -243 -3 -243 -2 16 29 c31 60 40 62 265 59 l205 -3 0 -40z"/>
<path d="M3397 8912 c-41 -28 -59 -59 -61 -103 -1 -47 27 -87 78 -113 33 -16
43 -17 78 -7 97 29 129 133 64 207 -31 36 -117 45 -159 16z m126 -63 c39 -48
10 -109 -52 -109 -42 0 -54 7 -70 37 -17 33 -14 51 15 80 20 20 31 24 57 19
18 -3 40 -16 50 -27z"/>
<path d="M3730 8913 c-76 -39 -90 -132 -28 -192 85 -83 241 23 195 131 -30 70
-100 95 -167 61z m97 -48 c27 -19 37 -59 22 -88 -16 -30 -28 -37 -66 -37 -60
0 -83 70 -38 115 28 29 51 31 82 10z"/>
<path d="M7040 8831 c0 -5 14 -11 31 -15 47 -9 289 -7 289 3 0 4 -34 11 -77
15 -109 9 -243 8 -243 -3z"/>
<path d="M7070 8750 c0 -6 53 -10 140 -10 87 0 140 4 140 10 0 6 -53 10 -140
10 -87 0 -140 -4 -140 -10z"/>
<path d="M1205 8456 c-79 -34 -106 -116 -65 -195 28 -56 64 -81 115 -81 77 0
144 67 148 149 3 92 -112 166 -198 127z m106 -65 c38 -39 40 -88 3 -125 -34
-34 -77 -34 -109 -1 -33 32 -34 93 -2 122 44 41 70 42 108 4z"/>
<path d="M1569 8450 c-87 -46 -114 -129 -66 -201 48 -72 126 -85 194 -33 91
69 96 158 13 228 -38 32 -89 34 -141 6z m125 -61 c48 -37 30 -113 -33 -139
-43 -17 -76 -6 -101 35 -52 84 54 167 134 104z"/>
<path d="M1949 8453 c-41 -17 -76 -49 -95 -85 -13 -25 -13 -32 1 -58 24 -46
99 -120 121 -120 31 0 122 49 144 77 24 30 26 83 6 122 -31 58 -117 89 -177
64z m76 -47 c34 -15 55 -41 55 -71 0 -25 -64 -85 -90 -85 -27 0 -90 61 -90 87
1 25 21 50 56 68 35 18 28 18 69 1z"/>
<path d="M9205 8407 c-38 -4 -74 -12 -79 -17 -7 -7 -4 -10 8 -10 14 0 17 -6
14 -25 -3 -14 -2 -25 1 -25 3 0 11 -10 16 -22 8 -19 21 -24 79 -31 84 -9 133
3 170 42 34 35 29 64 -15 87 -31 15 -65 16 -194 1z m188 -42 c9 -4 17 -11 17
-15 0 -4 -8 -14 -17 -21 -16 -12 -17 -12 -5 2 17 23 -6 28 -118 26 -85 -2 -99
1 -83 16 8 9 182 1 206 -8z m-116 -39 c4 -8 22 -16 38 -19 24 -3 22 -4 -12 -6
-23 0 -45 4 -48 9 -3 6 -11 10 -16 10 -6 0 -7 -5 -3 -11 4 -8 0 -8 -15 0 -11
7 -21 16 -21 21 0 16 68 12 77 -4z m93 4 c0 -5 -18 -10 -40 -10 -22 0 -40 5
-40 10 0 6 18 10 40 10 22 0 40 -4 40 -10z"/>
<path d="M8840 8403 l-24 -5 23 -12 23 -13 -27 -31 c-15 -18 -22 -32 -16 -32
6 0 11 5 11 11 0 6 14 -3 32 -20 17 -17 37 -31 42 -31 26 0 55 13 50 21 -3 5
4 9 15 9 12 0 21 4 21 9 0 5 11 12 25 15 14 4 23 11 20 16 -7 12 -134 10 -157
-2 -10 -5 -18 -5 -18 -1 0 5 8 15 18 23 13 11 35 14 90 10 52 -4 72 -2 72 7 0
22 -37 33 -107 32 -37 -1 -79 -4 -93 -6z m125 -84 c-4 -6 -14 -8 -22 -5 -8 3
-11 1 -8 -4 9 -15 -7 -12 -29 5 -18 14 -17 15 23 15 27 0 40 -4 36 -11z"/>
<path d="M8710 8336 c0 -2 7 -6 15 -10 8 -3 15 -1 15 4 0 6 -7 10 -15 10 -8 0
-15 -2 -15 -4z"/>
<path d="M8978 8283 c6 -2 18 -2 25 0 6 3 1 5 -13 5 -14 0 -19 -2 -12 -5z"/>
<path d="M3589 8256 c-90 -22 -195 -126 -219 -218 -14 -49 -15 -2358 -2 -2403
27 -90 87 -161 168 -196 39 -18 88 -19 895 -20 616 -2 865 1 895 9 78 22 145
85 181 169 15 35 16 148 14 1233 -3 1137 -4 1196 -21 1243 -35 92 -91 150
-170 176 -44 14 -1685 21 -1741 7z m1726 -65 c56 -26 110 -86 135 -150 l21
-55 0 -1182 c0 -1278 3 -1220 -52 -1271 -13 -12 -50 -34 -81 -48 l-57 -26
-833 3 c-824 3 -834 3 -879 24 -55 26 -111 82 -139 138 -20 42 -20 57 -20
1207 0 771 4 1177 10 1201 17 59 69 120 129 151 l55 27 835 0 c794 0 838 -1
876 -19z"/>
<path d="M3540 7944 c-6 -16 -10 -431 -10 -1113 0 -1074 0 -1089 20 -1094 19
-5 19 4 15 802 -6 1197 -8 1431 -12 1431 -2 0 -8 -12 -13 -26z"/>
<path d="M5328 7893 c-17 -4 -18 -56 -19 -911 0 -499 -1 -984 -2 -1079 l-2
-172 -50 -51 c-27 -27 -45 -50 -40 -50 23 0 76 43 102 81 l28 43 1 1073 c0
590 0 1072 0 1072 -1 -1 -9 -3 -18 -6z"/>
<path d="M3580 5716 c0 -2 8 -10 18 -17 15 -13 16 -12 3 4 -13 16 -21 21 -21
13z"/>
<path d="M5908 8235 c-73 -49 -68 25 -68 -1072 l1 -988 22 -26 c12 -15 31 -31
42 -36 12 -6 303 -9 729 -8 l709 2 34 36 33 37 0 1000 0 1000 -34 38 -34 37
-699 3 -698 2 -37 -25z m1441 -49 c19 -18 31 -40 31 -55 0 -15 4 -42 10 -61 9
-33 -5 -514 -16 -550 -3 -8 -5 -154 -5 -325 1 -170 -3 -316 -8 -324 -7 -12
-36 -12 -187 -1 -139 10 -298 10 -709 2 -291 -6 -541 -9 -555 -9 l-25 2 0 315
0 315 640 5 c352 3 618 8 590 12 -27 4 -300 8 -605 8 -305 0 -572 0 -592 0
l-38 0 0 305 c0 244 3 312 14 333 15 29 45 48 86 55 14 3 321 4 682 3 l657 -1
30 -29z m16 -1367 c6 -6 9 -121 9 -321 -2 -300 -3 -311 -23 -331 -20 -21 -26
-21 -721 -21 l-701 -1 -22 23 c-22 23 -22 30 -25 338 -2 173 -2 315 0 315 2 1
131 5 288 9 383 10 1182 2 1195 -11z"/>
<path d="M6535 8077 c-46 -34 -54 -42 -85 -103 -25 -46 -30 -68 -30 -124 0
-75 12 -105 62 -158 42 -45 84 -62 151 -62 92 0 168 45 210 124 30 58 30 165
-1 221 -25 46 -56 83 -92 108 -39 27 -175 24 -215 -6z m157 -6 c13 -5 40 -25
60 -45 100 -95 109 -228 20 -311 -28 -26 -106 -55 -150 -55 -54 0 -151 71
-172 125 -15 39 -12 121 6 163 19 46 69 100 109 118 35 15 94 18 127 5z"/>
<path d="M6020 7351 c-14 -4 56 -10 159 -14 256 -10 952 -7 976 3 12 5 -140 9
-365 10 -212 1 -466 3 -565 5 -99 2 -191 0 -205 -4z"/>
<path d="M6077 7233 c-53 -2 -85 -8 -82 -13 4 -6 212 -10 548 -9 298 0 533 4
522 8 -21 9 -842 20 -988 14z"/>
<path d="M7255 7231 c-6 -5 -28 -11 -50 -14 -36 -3 -35 -4 13 -5 40 -2 52 1
52 13 0 17 -3 18 -15 6z"/>
<path d="M7098 7213 c7 -3 16 -2 19 1 4 3 -2 6 -13 5 -11 0 -14 -3 -6 -6z"/>
<path d="M5982 7113 c2 -12 17 -20 50 -25 25 -5 313 -7 640 -6 585 3 593 3
593 23 0 19 -5 20 -115 15 -165 -7 -1093 -3 -1136 5 -31 5 -35 4 -32 -12z"/>
<path d="M5980 6990 c0 -13 80 -15 645 -18 580 -3 645 -2 645 12 0 9 -8 16
-17 17 -10 0 -300 1 -645 2 -553 2 -628 0 -628 -13z"/>
<path d="M6632 6730 c-138 -4 -175 -8 -182 -20 -5 -8 -10 -108 -10 -222 0
-196 1 -208 20 -218 12 -7 88 -9 202 -8 l183 3 9 219 9 219 -23 19 c-12 10
-25 17 -29 16 -3 -1 -84 -5 -179 -8z m173 -42 c2 -7 6 -95 7 -196 l3 -182
-155 0 c-85 0 -161 4 -168 8 -9 7 -12 51 -10 188 l3 179 150 5 c83 3 154 7
158 8 4 1 10 -4 12 -10z"/>
<path d="M6014 6723 c-63 -8 -66 -18 -62 -242 2 -166 6 -203 18 -211 18 -11
370 -13 387 -2 18 11 20 426 3 447 -10 12 -40 15 -164 13 -83 0 -165 -3 -182
-5z m316 -223 l0 -190 -152 0 c-84 0 -160 5 -168 10 -12 7 -16 38 -18 151 -2
79 -1 157 3 175 6 32 7 33 63 37 31 2 105 4 165 5 l107 2 0 -190z"/>
<path d="M6940 6710 c-19 -19 -20 -33 -20 -219 0 -169 2 -201 16 -212 23 -19
352 -26 376 -7 16 11 18 37 19 223 0 189 -1 210 -17 222 -13 9 -64 13 -186 13
-155 0 -170 -2 -188 -20z m350 -187 c0 -93 3 -178 6 -190 l6 -23 -166 0 -166
0 0 190 0 190 160 0 160 0 0 -167z"/>
<path d="M5963 5933 c-38 -3 -53 -8 -53 -19 0 -12 70 -14 488 -16 621 -2 965
2 976 13 27 25 -70 29 -702 27 -361 -1 -681 -3 -709 -5z"/>
<path d="M6613 5810 c-380 -3 -694 -8 -698 -12 -24 -24 25 -27 393 -23 213 2
541 4 730 4 297 1 342 3 342 16 0 8 -8 15 -17 15 -10 0 -27 1 -38 3 -11 1
-331 0 -712 -3z"/>
<path d="M5958 5693 c-21 -2 -38 -8 -38 -13 0 -6 221 -10 548 -10 582 0 912 8
912 21 0 9 -1345 10 -1422 2z"/>
<path d="M5913 5587 c-3 -5 -2 -11 2 -15 9 -9 1414 -7 1443 2 12 4 22 10 22
14 0 10 -1461 9 -1467 -1z"/>
<path d="M5923 5467 c-3 -5 -2 -11 2 -15 9 -10 1360 -14 1414 -4 25 4 46 12
48 18 5 14 -1456 14 -1464 1z"/>
<path d="M5930 5357 c0 -9 126 -12 603 -10 331 1 607 3 612 3 6 1 1 5 -10 10
-11 5 -287 9 -612 9 -469 1 -593 -2 -593 -12z"/>
<path d="M5965 5240 c11 -5 146 -8 300 -8 175 1 256 4 215 8 -93 11 -539 11
-515 0z"/>
<path d="M3700 5170 c-113 -4 -229 -8 -257 -9 -29 0 -53 -4 -53 -8 0 -6 1988
-9 2105 -4 13 1 16 4 9 11 -13 13 -1488 21 -1804 10z"/>
<path d="M6574 5151 c-18 -11 -45 -36 -60 -57 -26 -33 -29 -46 -29 -108 0 -60
4 -76 23 -101 55 -69 134 -90 207 -55 55 27 83 65 91 123 13 94 -22 162 -101
198 -52 24 -92 24 -131 0z m128 -52 c37 -27 58 -74 58 -130 0 -33 -6 -47 -34
-75 -47 -47 -101 -48 -152 -1 -59 54 -63 141 -8 198 35 36 91 40 136 8z"/>
<path d="M6072 5134 c-51 -41 -75 -96 -70 -166 3 -47 10 -64 34 -89 73 -78
185 -79 258 0 23 24 30 42 34 86 6 69 -8 104 -64 155 -40 37 -48 40 -101 40
-47 0 -64 -5 -91 -26z m158 -42 c101 -74 56 -232 -66 -232 -63 0 -132 90 -118
153 21 95 110 133 184 79z"/>
<path d="M3382 5050 c2 -6 397 -10 1062 -12 841 -2 1060 0 1063 10 4 9 -213
12 -1062 12 -677 0 -1065 -4 -1063 -10z"/>
<path d="M3382 4932 c3 -16 65 -17 1055 -18 579 0 1058 3 1064 7 42 26 -36 28
-1062 28 -1002 1 -1060 0 -1057 -17z"/>
<path d="M3402 4822 c-13 -2 -21 -9 -19 -15 3 -9 212 -13 843 -15 902 -4 1284
2 1284 22 0 8 -261 11 -1042 12 -574 0 -1053 -2 -1066 -4z"/>
<path d="M3390 4707 c0 -23 70 -25 710 -21 316 2 764 3 994 4 231 0 416 3 412
8 -4 4 -458 7 -1009 7 -551 1 -1026 5 -1054 9 -45 7 -53 6 -53 -7z"/>
<path d="M6758 4527 c-108 -41 -211 -128 -265 -225 -30 -54 -36 -76 -42 -150
-9 -110 0 -165 38 -246 40 -83 136 -175 218 -207 47 -19 77 -23 163 -24 98 0
109 2 171 32 83 41 164 126 211 220 31 64 33 74 33 173 -1 88 -5 114 -24 160
-51 118 -143 206 -261 251 -70 27 -192 35 -242 16z m97 -91 c8 -72 2 -90 -25
-81 -44 14 -144 -56 -193 -135 -17 -28 -21 -48 -20 -111 1 -45 9 -94 18 -116
31 -74 115 -138 216 -163 39 -10 50 -8 101 14 111 49 164 119 175 230 11 124
-62 242 -176 282 -49 18 -51 20 -51 56 0 61 6 68 48 56 110 -30 180 -93 239
-212 47 -98 53 -140 32 -251 -29 -156 -130 -248 -305 -275 -82 -13 -138 -3
-216 36 -60 31 -138 106 -166 161 -61 119 -46 304 35 409 36 49 125 113 193
141 84 35 87 33 95 -41z m55 -137 c160 -34 225 -250 105 -346 -44 -35 -128
-62 -179 -56 -104 12 -195 144 -172 250 9 39 70 120 109 143 37 23 65 25 137
9z"/>
<path d="M4680 4400 c-1193 -5 -1205 -5 -1240 -26 -19 -11 -45 -35 -57 -54
l-23 -33 0 -514 c0 -360 3 -521 11 -536 17 -33 70 -86 104 -105 28 -16 130
-17 1299 -14 1362 3 1294 1 1343 54 53 56 53 60 53 582 0 284 -4 495 -10 510
-15 40 -81 107 -125 127 -26 12 -59 18 -95 16 -30 -1 -597 -4 -1260 -7z m1380
-78 c58 -43 58 -43 61 -574 3 -477 3 -488 -17 -515 -11 -15 -32 -35 -46 -46
-24 -18 -66 -19 -1291 -20 l-1266 -2 -30 29 c-17 17 -41 49 -52 74 -21 43 -21
50 -17 505 5 502 6 514 61 550 23 15 73 17 484 19 252 2 824 2 1272 1 796 -1
815 -2 841 -21z"/>
<path d="M3725 4160 c28 -12 197 -12 215 0 10 7 -26 10 -110 9 -79 0 -118 -4
-105 -9z"/>
<path d="M3527 4073 c-4 -3 -7 -14 -7 -24 0 -13 11 -20 38 -25 55 -11 1044 4
1055 15 5 5 7 17 4 25 -6 14 -65 16 -545 16 -296 0 -542 -3 -545 -7z"/>
<path d="M4840 4050 l0 -30 580 2 c534 1 580 2 580 18 0 27 -245 40 -732 40
l-428 0 0 -30z"/>
<path d="M3548 3943 c-29 -5 -44 -28 -25 -40 15 -10 1026 -4 1064 6 15 4 28
14 28 22 0 12 -77 14 -520 15 -286 1 -532 -1 -547 -3z"/>
<path d="M4832 3928 c3 -23 5 -23 213 -30 116 -4 378 -5 583 -1 342 5 372 7
372 23 0 15 -18 18 -157 23 -87 4 -351 7 -586 7 l-428 0 3 -22z"/>
<path d="M3521 3821 c-8 -5 -11 -15 -8 -23 4 -12 41 -16 173 -21 214 -9 641
-9 807 0 109 5 127 8 125 22 -3 14 -32 17 -213 22 -331 10 -869 10 -884 0z"/>
<path d="M4836 3822 c-3 -3 -6 -13 -6 -23 0 -13 11 -19 43 -24 71 -11 1130 -1
1134 10 9 30 -18 32 -589 38 -317 3 -579 2 -582 -1z"/>
<path d="M4868 3702 c-29 -2 -38 -8 -38 -21 0 -13 10 -20 38 -25 48 -8 1090
-8 1120 0 12 4 22 12 22 20 0 7 -10 16 -22 19 -25 5 -1060 12 -1120 7z"/>
<path d="M3510 3681 c0 -30 54 -33 597 -29 492 3 528 6 509 37 -5 8 -172 11
-557 11 -535 0 -549 0 -549 -19z"/>
<path d="M3582 3573 c-69 -4 -73 -5 -70 -26 l3 -22 530 2 c292 1 540 5 553 8
12 3 22 12 22 19 0 8 -10 16 -22 20 -23 6 -883 5 -1016 -1z"/>
<path d="M4840 3553 c0 -18 7 -23 47 -29 27 -4 286 -5 576 -1 520 5 570 8 541
37 -5 5 -235 10 -587 12 l-577 3 0 -22z"/>
<path d="M3520 3432 c0 -18 16 -19 263 -25 261 -6 588 -2 745 9 61 4 82 9 82
20 0 12 -83 14 -545 14 -523 0 -545 -1 -545 -18z"/>
<path d="M4852 3433 c3 -16 23 -19 188 -25 280 -11 960 2 960 17 0 7 -7 16
-16 19 -9 3 -268 6 -576 6 -527 0 -559 -1 -556 -17z"/>
<path d="M3570 3331 c-22 -4 -35 -12 -35 -21 0 -21 92 -23 623 -15 343 6 442
10 442 20 0 7 -17 15 -39 18 -55 7 -948 6 -991 -2z"/>
<path d="M4852 3314 c3 -18 24 -19 543 -21 297 0 548 -3 557 -5 9 -1 18 2 20
7 6 20 -99 26 -605 32 -504 5 -519 5 -515 -13z"/>
<path d="M6480 3470 c0 -13 51 -15 412 -12 226 1 414 4 416 7 17 16 -50 20
-419 20 -357 0 -409 -2 -409 -15z"/>
<path d="M6500 3375 c0 -13 26 -15 174 -15 159 0 213 8 170 24 -9 3 -90 6
-180 6 -139 0 -164 -2 -164 -15z"/>
<path d="M6895 3380 c-22 -5 -7 -8 53 -9 49 -1 82 3 82 9 0 11 -90 11 -135 0z"/>
<path d="M6558 3273 c-80 -3 -88 -6 -88 -23 0 -20 9 -20 375 -20 320 0 375 2
375 14 0 10 -15 17 -42 20 -56 7 -507 13 -620 9z"/>
<path d="M5187 2933 c-4 -3 -7 -264 -7 -580 l0 -573 1075 0 1075 0 16 25 c14
22 16 82 16 555 0 292 -2 533 -4 535 -3 3 -483 7 -1067 9 -945 4 -1065 7
-1080 20 -10 9 -21 13 -24 9z m132 -73 c5 0 8 -232 9 -515 l0 -515 -54 0 -54
0 0 514 0 515 33 4 c17 2 38 2 45 0 8 -1 17 -3 21 -3z m135 -82 c4 -46 5 -276
1 -512 -4 -328 -8 -432 -18 -438 -6 -4 -24 -8 -39 -8 l-28 0 0 383 c0 211 3
445 7 520 l6 137 32 0 33 0 6 -82z m126 -438 l0 -520 -42 0 -41 0 6 368 c4
202 7 436 7 520 l0 152 35 0 35 0 0 -520z m130 5 l0 -515 -40 0 -40 0 0 499
c0 275 3 506 6 515 4 10 18 16 40 16 l34 0 0 -515z m130 -5 l0 -520 -40 0 -40
0 0 520 0 520 40 0 40 0 0 -520z m128 3 l-3 -518 -37 -3 -38 -3 0 520 0 521
40 0 40 0 -2 -517z m130 0 l-3 -518 -44 -3 -44 -3 4 520 4 521 43 0 42 0 -2
-517z m124 484 c2 -19 2 -251 0 -515 l-4 -482 -37 0 -36 0 3 515 2 515 34 0
c31 0 34 -3 38 -33z m165 -364 c-4 -219 -7 -453 -7 -521 l0 -123 -57 3 -57 3
-4 503 c-2 276 -2 509 2 517 4 11 22 15 67 15 l62 0 -6 -397z m121 -125 l2
-518 -43 0 -44 0 2 148 c1 81 2 314 3 518 l2 371 38 -1 37 -1 3 -517z m135
415 c9 -137 9 -723 1 -841 l-7 -92 -38 0 -37 0 -1 520 -1 520 39 0 38 0 6
-107z m141 76 c8 -41 8 -348 -1 -717 l-6 -293 -41 3 -41 3 0 88 c0 48 2 281 3
517 l2 430 39 0 c35 0 39 -3 45 -31z m136 -322 c0 -195 -3 -429 -7 -520 l-6
-167 -45 0 -45 0 7 61 c3 34 6 268 6 520 l0 459 45 0 45 0 0 -353z m122 276
c2 -43 2 -277 0 -520 l-3 -443 -42 0 -42 0 6 462 c4 255 7 489 8 521 l1 57 34
0 34 0 4 -77z m135 -440 l-2 -518 -44 -3 c-41 -3 -43 -2 -37 20 3 13 6 247 6
521 l0 497 39 0 39 0 -1 -517z m140 110 c1 -225 -1 -455 -5 -513 l-7 -105 -37
0 -37 0 -5 310 c-3 171 -2 401 1 513 l6 202 41 0 42 0 1 -407z"/>
<path d="M3442 2883 c-18 -8 -44 -29 -57 -45 -23 -27 -25 -38 -25 -122 0 -103
9 -124 64 -150 32 -15 105 -17 688 -21 359 -2 670 -1 691 2 24 4 53 19 79 43
l42 36 0 96 c1 89 -1 98 -24 123 -53 57 -23 55 -752 55 -599 0 -677 -2 -706
-17z m1412 -52 c22 -22 32 -98 22 -166 -13 -81 27 -77 -744 -72 l-676 4 -23
27 c-19 23 -23 39 -23 95 0 100 25 123 149 133 47 3 354 4 681 2 567 -4 596
-5 614 -23z"/>
<path d="M3408 2477 c-40 -24 -51 -60 -45 -144 6 -75 27 -122 67 -143 24 -13
745 -21 1119 -13 l293 6 39 37 39 37 0 86 c0 82 -1 87 -31 116 -17 17 -34 31
-37 31 -4 0 -324 2 -711 3 -655 2 -706 1 -733 -16z m1418 -17 c33 -13 45 -43
46 -116 1 -54 -2 -69 -21 -87 -20 -20 -34 -23 -189 -29 -92 -3 -399 -7 -683
-7 -403 -1 -519 2 -533 12 -21 15 -35 74 -36 141 0 37 5 56 21 72 l20 22 676
0 c372 0 686 -3 699 -8z"/>
<path d="M3413 2097 c-44 -31 -53 -56 -53 -149 l0 -81 40 -39 41 -38 617 -2
c339 -2 651 -3 693 -3 68 1 80 4 114 29 47 36 65 79 65 155 0 56 -2 62 -37 96
-21 19 -47 37 -58 40 -11 2 -328 6 -705 9 l-686 6 -31 -23z m1415 -25 c40 -18
52 -45 52 -117 0 -46 -5 -60 -29 -87 l-29 -33 -609 3 c-334 1 -643 3 -686 2
-77 0 -77 0 -97 33 -12 19 -20 50 -20 78 0 100 15 124 85 139 17 3 316 4 665
2 546 -4 640 -6 668 -20z"/>
<path d="M2252 6274 c21 -21 113 -33 106 -13 -5 16 -39 27 -88 28 -31 1 -33 0
-18 -15z"/>
<path d="M1820 3132 c0 -28 218 -176 320 -218 93 -38 219 -71 297 -79 74 -7
153 0 153 15 0 13 -27 20 -103 26 -109 9 -231 41 -346 91 -112 48 -167 80
-191 108 -8 9 -38 28 -67 41 -57 26 -63 28 -63 16z"/>
<path d="M7973 7110 c-64 -38 -71 -92 -18 -139 25 -22 46 -31 70 -31 32 0 52
18 91 79 2 2 17 -13 34 -33 41 -46 80 -49 111 -7 l21 29 30 -34 c39 -44 78
-46 119 -4 26 25 30 36 27 72 -2 35 -9 46 -37 65 -45 30 -84 30 -109 -1 l-19
-24 -29 23 c-45 37 -77 32 -111 -15 -33 -46 -40 -49 -49 -15 -13 53 -74 70
-131 35z m432 -52 c19 -36 19 -37 1 -57 -48 -53 -102 12 -65 80 15 29 41 19
64 -23z m-351 10 c20 -29 20 -47 -1 -70 -20 -22 -41 -23 -65 -1 -22 20 -23 51
-1 75 22 24 49 23 67 -4z m187 -2 c16 -35 4 -76 -23 -76 -26 0 -58 27 -58 48
0 22 30 52 52 52 10 0 23 -11 29 -24z"/>
<path d="M9236 7061 c-16 -3 -31 -12 -34 -18 -3 -10 29 -13 137 -13 114 0 141
3 141 14 0 8 -6 16 -13 19 -18 7 -194 5 -231 -2z"/>
<path d="M9459 6684 c-11 -14 -87 -15 -743 -13 -662 2 -731 1 -734 -13 -2 -10
6 -19 20 -24 26 -9 951 -12 1273 -4 l210 5 3 33 c4 35 -8 41 -29 16z"/>
<path d="M7986 6469 c-12 -64 -7 -115 15 -135 19 -17 37 -18 247 -15 149 1
236 7 252 14 23 11 25 19 28 81 2 39 -2 74 -8 80 -7 7 -10 6 -10 -2 0 -16
-491 -17 -507 -1 -7 7 -12 1 -17 -22z m525 -66 c3 -23 3 -41 0 -41 -3 1 -17
-3 -31 -9 -16 -7 -101 -8 -245 -4 l-220 6 -3 33 c-6 65 -17 63 250 60 l243 -3
6 -42z"/>
<path d="M8620 6430 c0 -118 -33 -111 453 -108 l412 3 0 84 c0 59 -4 86 -12
89 -7 2 -13 -4 -13 -13 0 -12 -5 -15 -17 -10 -21 8 -781 7 -794 -1 -5 -3 -9 2
-9 10 0 9 -4 16 -10 16 -6 0 -10 -30 -10 -70z m818 14 c32 -6 33 -8 30 -48
l-3 -41 -407 -2 -408 -2 -6 23 c-3 13 -4 35 -2 47 l3 24 210 6 c223 6 528 3
583 -7z"/>
<path d="M7978 6228 c-3 -7 -3 -17 -2 -23 3 -8 331 -11 549 -5 6 1 -1 10 -14
20 -22 19 -39 20 -276 20 -193 0 -254 -3 -257 -12z"/>
<path d="M8757 6233 c-4 -3 -35 -7 -69 -7 -53 -1 -63 -4 -66 -20 -4 -17 0 -18
35 -11 44 8 776 9 803 0 24 -8 49 23 29 36 -16 10 -722 13 -732 2z"/>
<path d="M8630 6020 c-17 -17 -20 -33 -20 -100 0 -68 3 -81 19 -90 13 -6 164
-10 423 -10 349 0 407 2 426 16 20 14 22 24 22 98 0 50 -5 87 -12 94 -9 9
-117 12 -425 12 -400 0 -414 -1 -433 -20z m825 -13 c3 -12 5 -53 3 -91 l-3
-69 -399 -4 c-317 -3 -401 -1 -408 9 -4 7 -8 41 -8 75 0 101 -17 96 334 89
166 -3 328 -2 361 3 103 15 114 14 120 -12z"/>
<path d="M7992 6018 c-7 -7 -12 -42 -12 -88 0 -112 -10 -108 260 -116 217 -6
226 -6 250 14 23 18 25 27 25 95 0 113 15 107 -269 107 -175 0 -245 -3 -254
-12z m344 -15 l142 -6 5 -51 c3 -28 3 -64 0 -79 l-5 -27 -228 0 c-199 0 -229
2 -234 16 -8 21 -8 139 1 147 8 9 137 9 319 0z"/>
<path d="M9281 1624 c0 -11 3 -14 6 -6 3 7 2 16 -1 19 -3 4 -6 -2 -5 -13z"/>
<path d="M8413 1423 c9 -2 25 -2 35 0 9 3 1 5 -18 5 -19 0 -27 -2 -17 -5z"/>
<path d="M551 1389 c-7 -12 -10 -23 -8 -26 3 -3 11 5 17 17 15 28 8 35 -9 9z"/>
<path d="M277 1353 c-13 -12 -7 -51 11 -73 16 -19 22 -21 40 -11 38 20 21 91
-22 91 -12 0 -26 -3 -29 -7z"/>
</g>
</svg>
