<?xml version="1.0" standalone="no"?>
<!DOCTYPE svg PUBLIC "-//W3C//DTD SVG 20010904//EN"
 "http://www.w3.org/TR/2001/REC-SVG-20010904/DTD/svg10.dtd">
<svg version="1.0" xmlns="http://www.w3.org/2000/svg"
 width="1024.000000pt" height="510.000000pt" viewBox="0 0 1024.000000 510.000000"
 preserveAspectRatio="xMidYMid meet">

<g transform="translate(0.000000,510.000000) scale(0.100000,-0.100000)"
fill="#000000" stroke="none">
<path d="M5195 3833 c-44 -11 -157 -16 -430 -22 -350 -7 -373 -9 -427 -30 -76
-30 -165 -98 -205 -158 -63 -94 -67 -113 -71 -395 l-3 -258 -510 0 -509 0 0
260 c0 255 0 260 -25 316 -59 134 -171 231 -297 258 -45 10 -1627 6 -1695 -3
-186 -27 -329 -173 -353 -361 -13 -105 -13 -1547 1 -1630 28 -177 174 -327
350 -360 31 -6 364 -10 828 -10 842 0 855 1 962 55 67 34 158 126 187 187 34
74 41 121 48 332 l7 196 436 0 c240 0 466 3 504 7 l67 6 0 -174 c0 -192 10
-274 41 -346 31 -73 98 -152 164 -195 112 -73 72 -70 994 -70 455 0 842 3 861
7 83 18 205 104 257 182 68 101 81 159 89 385 l7 205 504 -1 c495 -1 504 -1
508 -21 2 -11 6 -101 9 -200 5 -186 12 -229 56 -316 52 -103 131 -169 247
-208 88 -30 453 -45 981 -41 54 1 91 -3 88 -8 -8 -14 55 -9 82 6 14 8 28 10
38 4 9 -5 60 -7 115 -4 61 3 99 1 99 -5 0 -6 26 -8 63 -6 79 6 94 6 137 3 51
-5 181 11 175 21 -3 4 10 11 29 14 32 7 106 65 106 84 0 6 6 14 13 18 7 4 21
19 30 33 9 13 17 19 17 12 0 -17 17 -15 24 4 4 9 2 13 -5 8 -13 -8 -12 -5 22
61 62 116 60 84 59 971 0 876 1 854 -54 948 -59 102 -177 184 -295 206 -76 14
-1567 14 -1656 0 -158 -25 -285 -129 -346 -285 -21 -55 -24 -79 -29 -300 l-5
-240 -510 0 -510 0 -1 240 c-1 264 -4 279 -62 379 -67 114 -172 193 -282 211
-25 5 -182 8 -350 9 -270 1 -309 3 -337 19 -40 21 -152 22 -238 0z m-2482 -52
c157 -36 267 -159 297 -334 19 -104 6 -1547 -14 -1639 -31 -143 -103 -236
-232 -299 l-65 -32 -848 0 -847 1 -68 31 c-93 42 -182 133 -216 222 l-25 64 0
845 c0 845 0 845 22 898 45 109 123 182 238 222 45 16 98 23 215 28 249 11
1487 5 1543 -7z m3426 -4 c113 -35 193 -104 253 -219 l33 -63 0 -855 0 -855
-34 -70 c-55 -111 -171 -213 -269 -236 -34 -8 -277 -9 -1352 -5 -394 1 -395 1
-443 25 -71 35 -162 123 -192 186 -55 117 -55 115 -55 959 0 677 2 786 16 839
37 144 108 221 257 280 73 29 180 32 1017 31 632 -1 721 -3 769 -17z m3374 -2
c128 -27 231 -107 285 -223 l27 -57 5 -435 c4 -374 -1 -1041 -8 -911 -4 88
-14 30 -14 -86 -1 -94 -3 -111 -10 -83 -13 46 -14 71 -4 153 5 46 4 67 -3 67
-6 0 -12 -24 -13 -57 -1 -32 -5 248 -8 622 l-5 680 -33 67 c-38 76 -101 140
-170 171 -46 20 -58 21 -857 21 -938 1 -876 7 -988 -95 -58 -53 -67 -66 -91
-138 l-26 -80 0 -776 c0 -750 1 -777 20 -832 11 -32 33 -73 48 -93 37 -46 126
-108 171 -119 46 -12 304 -21 585 -21 121 0 217 -3 213 -6 -11 -11 -805 -15
-812 -4 -4 6 -11 8 -16 4 -6 -3 -17 4 -26 16 -8 12 -21 19 -29 16 -7 -3 -16
-1 -19 4 -3 5 -13 6 -22 3 -11 -4 -14 -3 -9 5 5 8 -2 12 -20 12 -38 0 -103 73
-134 152 l-25 63 0 825 0 825 32 68 c70 148 164 221 318 246 28 5 392 9 810
10 625 0 772 -2 828 -14z m-28 -110 c64 -17 127 -54 157 -95 10 -14 28 -52 40
-85 21 -58 21 -75 22 -470 1 -453 -1 -558 -14 -550 -5 3 -7 -12 -5 -32 3 -21
2 -30 -1 -20 -3 9 -10 15 -15 12 -10 -7 -53 21 -55 35 -1 6 -2 15 -3 21 0 5
-6 7 -12 3 -7 -4 -7 1 1 16 9 17 9 25 -3 38 -8 9 -18 32 -22 50 -3 17 -11 32
-16 32 -5 0 -9 7 -9 15 0 8 -4 15 -10 15 -17 0 -72 149 -72 192 1 10 -3 20 -9
23 -5 4 -9 18 -9 33 0 31 -29 83 -67 118 -22 21 -26 32 -24 78 1 52 0 54 -53
109 -70 72 -110 82 -162 42 -20 -15 -44 -41 -54 -58 -16 -26 -20 -28 -26 -14
-15 40 -174 107 -302 128 -123 20 -280 -12 -401 -83 -80 -47 -221 -191 -266
-273 -74 -131 -107 -284 -85 -391 40 -197 118 -324 313 -510 12 -11 38 -32 57
-45 19 -13 44 -32 55 -42 11 -11 36 -29 55 -42 46 -30 80 -63 80 -77 0 -6 -3
-8 -6 -5 -9 8 -44 -11 -44 -23 0 -6 11 -10 25 -10 14 0 25 -2 25 -4 0 -2 3
-12 7 -21 5 -14 2 -16 -15 -11 -12 4 -37 3 -57 -3 -19 -5 -35 -6 -35 -3 0 4
-11 12 -25 18 -20 10 -27 9 -37 -3 -10 -12 -9 -18 7 -29 10 -8 15 -17 10 -21
-4 -5 -10 -2 -12 5 -3 6 -13 12 -24 12 -10 0 -19 6 -19 14 0 20 -27 28 -42 12
-7 -7 -19 -11 -26 -8 -6 2 -12 -1 -12 -7 0 -6 -11 -11 -25 -11 -18 0 -28 7
-35 25 -11 30 -30 33 -30 5 0 -25 -20 -26 -27 -1 -6 24 -40 17 -69 -15 -13
-14 -33 -24 -50 -25 -16 0 -23 -3 -16 -6 6 -2 10 -9 6 -14 -3 -5 1 -9 8 -9 21
0 -14 -20 -35 -20 -13 0 -17 6 -15 23 3 21 0 22 -59 19 -41 -3 -63 0 -63 7 0
6 8 11 17 11 14 0 12 4 -7 17 -16 12 -43 17 -87 16 -35 0 -63 4 -63 9 0 5 -4
6 -10 3 -5 -3 -10 -1 -10 4 0 6 -5 11 -10 11 -6 0 -8 -11 -4 -25 9 -38 -4 -30
-22 13 -28 67 -35 266 -32 977 3 647 4 702 21 732 40 74 115 139 196 168 29
11 190 14 796 14 651 1 769 -1 820 -14z m-611 -449 c81 -31 89 -36 52 -36 -16
0 -25 -4 -21 -10 3 -5 19 -10 36 -10 16 0 29 -4 29 -10 0 -5 7 -10 15 -10 29
0 14 -45 -31 -94 l-45 -49 -31 23 c-68 50 -219 65 -326 32 -99 -32 -221 -128
-270 -215 -54 -94 -93 -265 -63 -275 6 -2 11 -18 10 -35 0 -25 -2 -28 -8 -13
-7 18 -8 18 -14 2 -4 -10 -7 -27 -7 -38 0 -15 5 -19 20 -15 11 3 20 1 20 -5 0
-5 7 -16 15 -25 9 -8 19 -28 22 -44 3 -16 12 -29 19 -29 8 0 14 -2 14 -4 0 -2
3 -11 6 -20 4 -12 0 -16 -15 -16 -12 0 -21 -4 -21 -10 0 -25 -30 -7 -38 23 -5
17 -15 31 -21 29 -8 -1 -12 8 -11 25 4 53 1 59 -27 57 -18 -1 -38 8 -55 24
-30 27 -35 24 -17 -10 6 -11 8 -22 5 -25 -15 -16 -55 141 -56 219 -1 210 146
441 340 534 115 56 155 64 285 60 99 -3 132 -8 189 -30z m379 -44 c34 -36 35
-77 2 -126 -13 -20 -84 -96 -157 -169 -192 -193 -412 -427 -449 -481 -18 -25
-36 -46 -40 -46 -14 0 -249 252 -249 267 0 20 68 93 86 93 7 0 42 -29 77 -65
36 -36 69 -65 74 -65 6 0 33 28 62 63 64 76 349 385 447 484 81 82 105 89 147
45z m-536 -218 c-3 -3 -12 -4 -19 -1 -8 3 -5 6 6 6 11 1 17 -2 13 -5z m-4669
-14 c10 0 12 -65 10 -306 l-3 -306 -140 -6 c-190 -8 -609 -5 -725 5 l-95 8 -3
48 c-2 26 -7 45 -12 42 -12 -7 -19 86 -23 317 l-5 198 197 2 c147 2 610 1 799
-2z m3442 -287 c0 -164 -4 -303 -8 -309 -17 -25 -859 -38 -973 -15 l-34 7 0
181 c0 100 3 179 8 176 14 -9 -2 169 -16 183 -4 4 -7 20 -7 35 l0 28 113 4
c61 1 293 4 515 5 l402 2 0 -297z m1030 283 c0 -19 -14 -28 -34 -20 -13 5 -14
9 -5 20 15 18 39 18 39 0z m320 -13 c0 -3 -6 -3 -12 0 -7 2 -21 -5 -31 -16 -9
-11 -20 -17 -25 -13 -11 11 37 46 53 39 8 -3 15 -7 15 -10z m-120 -33 c0 -5
-4 -10 -9 -10 -6 0 -13 5 -16 10 -3 6 1 10 9 10 9 0 16 -4 16 -10z m43 -47
c-5 -12 -18 -17 -36 -14 -5 1 -6 -3 -2 -9 3 -5 2 -10 -4 -10 -6 0 -17 -13 -25
-28 -20 -38 -86 -103 -97 -96 -5 3 -9 15 -10 27 0 21 -1 21 -9 2 -5 -11 -9
-14 -9 -7 -1 6 -8 12 -16 12 -8 0 -15 9 -15 21 0 11 5 17 10 14 6 -3 13 1 16
9 3 9 13 16 21 16 10 0 12 6 8 20 -5 17 -2 20 22 20 34 0 58 14 49 28 -4 6 13
16 41 24 42 12 49 12 54 -1 3 -9 4 -22 2 -28z m-289 -54 c-3 -6 -19 -9 -34 -6
-15 3 -32 1 -37 -4 -7 -7 -12 -5 -16 5 -5 13 2 16 44 16 34 0 48 -4 43 -11z
m-104 -43 c0 -8 -7 -16 -15 -20 -12 -4 -13 -2 -2 14 14 24 17 25 17 6z m-19
-221 c15 -16 30 -40 33 -51 10 -32 -24 -26 -45 7 -18 27 -37 101 -22 84 4 -5
20 -23 34 -40z m734 -78 c-25 -65 -92 -159 -140 -195 -88 -67 -118 -76 -250
-76 -104 0 -130 3 -195 26 -41 15 -78 24 -82 22 -4 -3 -5 2 -2 11 5 11 10 13
19 5 9 -7 15 -7 19 -1 4 6 30 -1 64 -17 49 -23 70 -27 152 -27 89 0 100 2 172
37 105 50 158 101 210 204 43 84 65 91 33 11z m-688 -21 c-3 -8 -2 -17 4 -20
5 -2 4 -3 -3 -2 -17 3 -23 36 -8 36 7 0 10 -6 7 -14z m74 -33 c12 -15 12 -16
-2 -11 -9 4 -22 1 -28 -5 -8 -8 -11 -6 -11 7 0 9 5 14 10 11 6 -3 10 -1 10 4
0 15 5 14 21 -6z m-261 -77 c0 -3 -4 -8 -10 -11 -5 -3 -10 -1 -10 4 0 6 5 11
10 11 6 0 10 -2 10 -4z m-960 -47 c63 1 136 4 161 7 37 5 47 3 52 -10 6 -15
-16 -17 -251 -16 -281 2 -385 11 -212 20 58 3 112 4 120 2 8 -2 67 -3 130 -3z
m1170 7 c0 -3 -4 -8 -10 -11 -5 -3 -10 -1 -10 4 0 6 5 11 10 11 6 0 10 -2 10
-4z m-4401 -16 c8 0 12 -2 10 -5 -8 -8 -369 -13 -484 -7 -184 10 -63 19 210
15 138 -2 256 -4 264 -3z m2804 -2 c-43 -5 -91 -5 -120 1 -40 7 -29 9 72 9
118 -1 119 -1 48 -10z m-3426 -5 c-20 -2 -52 -2 -70 0 -17 2 0 4 38 4 39 0 53
-2 32 -4z m6390 -295 c-3 -7 -5 -2 -5 12 0 14 2 19 5 13 2 -7 2 -19 0 -25z
m-1331 -209 c19 -22 19 -22 -3 -10 -13 6 -23 16 -23 21 0 15 5 12 26 -11z
m-709 -31 c-3 -8 -6 -5 -6 6 -1 11 2 17 5 13 3 -3 4 -12 1 -19z m88 12 c3 -5
2 -10 -4 -10 -5 0 -13 5 -16 10 -3 6 -2 10 4 10 5 0 13 -4 16 -10z m1887 -27
c-29 -53 -163 -145 -232 -158 -26 -4 -31 -3 -20 4 8 6 23 11 34 11 34 0 124
60 173 114 48 54 63 63 45 29z m-1562 -4 c0 -17 -4 -20 -22 -15 -13 3 -31 6
-40 6 -10 0 -18 7 -18 15 0 11 11 15 40 15 34 0 40 -3 40 -21z m50 17 c0 -11
-19 -15 -25 -6 -3 5 1 10 9 10 9 0 16 -2 16 -4z m-305 -26 c3 -5 1 -10 -4 -10
-6 0 -11 5 -11 10 0 6 2 10 4 10 3 0 8 -4 11 -10z m48 3 c-7 -2 -19 -2 -25 0
-7 3 -2 5 12 5 14 0 19 -2 13 -5z m-128 -23 c3 -5 -1 -10 -10 -10 -9 0 -13 5
-10 10 3 6 8 10 10 10 2 0 7 -4 10 -10z m90 -28 c-3 -3 -11 0 -18 7 -9 10 -8
11 6 5 10 -3 15 -9 12 -12z m148 -9 c-7 -2 -19 -2 -25 0 -7 3 -2 5 12 5 14 0
19 -2 13 -5z m-40 -20 c-13 -2 -35 -2 -50 0 -16 2 -5 4 22 4 28 0 40 -2 28 -4z
m730 -70 c-7 -2 -21 -2 -30 0 -10 3 -4 5 12 5 17 0 24 -2 18 -5z m145 0 c-15
-2 -42 -2 -60 0 -18 2 -6 4 27 4 33 0 48 -2 33 -4z m95 0 c-7 -2 -19 -2 -25 0
-7 3 -2 5 12 5 14 0 19 -2 13 -5z m190 0 c-29 -2 -78 -2 -110 0 -32 2 -8 3 52
3 61 0 87 -1 58 -3z m463 -58 c-11 -8 -25 -15 -30 -15 -6 0 -2 7 8 15 11 8 25
15 30 15 6 0 2 -7 -8 -15z m-86 -29 c0 -3 -4 -8 -10 -11 -5 -3 -10 -1 -10 4 0
6 5 11 10 11 6 0 10 -2 10 -4z"/>
<path d="M1530 3701 l-525 -6 -65 -35 c-111 -60 -164 -160 -159 -299 2 -36 -1
-397 -5 -802 l-9 -737 26 -54 c49 -109 148 -187 263 -207 38 -7 332 -11 834
-10 722 0 778 2 815 18 66 30 143 99 183 164 l37 62 0 835 c0 835 0 835 -22
882 -30 67 -95 132 -156 159 -44 19 -72 23 -187 25 -74 1 -218 4 -320 6 -102
3 -421 2 -710 -1z m1030 -24 c124 -4 149 -12 224 -70 25 -20 50 -54 70 -96
l31 -66 -2 -797 c-2 -779 -2 -798 -22 -843 -29 -65 -73 -118 -129 -153 l-47
-30 -820 -4 c-816 -3 -820 -3 -866 18 -93 43 -159 124 -178 219 -16 78 -21
1527 -5 1588 33 129 145 223 279 236 62 6 1261 5 1465 -2z"/>
<path d="M1740 3303 c-66 -11 -172 -49 -242 -85 -185 -96 -331 -311 -345 -508
-17 -245 96 -482 301 -630 74 -53 173 -110 193 -110 19 0 93 -41 93 -51 0 -14
125 -95 167 -108 46 -15 203 -7 214 10 3 6 39 16 80 23 41 8 87 19 102 25 16
6 64 11 107 10 78 -1 105 5 95 21 -3 5 0 12 7 17 15 9 37 62 48 118 5 22 13
53 20 69 12 33 15 179 4 198 -5 7 -7 21 -5 32 1 10 -1 30 -4 45 -7 24 -8 25
-16 6 -6 -14 -8 -2 -6 37 2 31 0 55 -5 52 -4 -3 -8 -11 -8 -19 0 -8 -4 -16 -9
-19 -5 -4 -8 48 -6 125 3 128 2 132 -34 238 -62 180 -174 331 -306 410 -122
74 -320 116 -445 94z m229 -58 c83 -20 175 -64 239 -116 46 -36 51 -43 40 -62
-8 -16 -8 -22 1 -25 6 -2 11 -7 11 -12 0 -15 -38 2 -64 28 -34 37 -53 52 -66
52 -14 0 -13 -20 3 -22 6 -1 -13 -4 -43 -7 -36 -4 -54 -10 -53 -18 4 -16 -14
-17 -19 -1 -2 6 -13 13 -24 14 -10 2 -47 8 -82 14 -151 26 -327 -32 -424 -140
-30 -32 -61 -72 -69 -87 -7 -15 -17 -31 -22 -34 -22 -16 -38 -268 -20 -338 6
-24 5 -24 -46 -17 -46 6 -51 5 -51 -13 0 -10 6 -21 14 -24 8 -3 17 -19 21 -36
4 -17 11 -31 17 -31 6 0 9 -3 6 -6 -4 -3 -16 0 -28 6 -20 11 -21 10 -10 -10 6
-12 10 -23 8 -26 -8 -8 -70 113 -84 166 -22 79 -29 226 -14 291 49 214 236
400 456 453 78 19 224 19 303 1z m191 -265 c0 -5 -2 -10 -4 -10 -3 0 -8 5 -11
10 -3 6 -1 10 4 10 6 0 11 -4 11 -10z m157 -7 c2 -6 -5 -13 -17 -16 -22 -6
-23 -5 -14 18 7 17 25 16 31 -2z m-416 -19 c121 -39 202 -177 185 -315 -6 -49
-40 -128 -51 -117 -2 2 1 36 6 76 11 77 0 161 -27 213 -19 39 -87 89 -142 106
-55 16 -119 10 -172 -17 -49 -26 -108 -90 -120 -131 -25 -85 4 -200 62 -256
59 -55 99 -53 44 2 -53 52 -74 181 -41 246 39 75 79 99 166 99 121 0 191 -71
194 -197 1 -35 -2 -63 -7 -63 -4 0 -7 -21 -5 -47 3 -37 -1 -53 -16 -70 -11
-13 -26 -23 -33 -23 -6 0 -14 -6 -17 -13 -3 -8 -33 -22 -67 -31 -132 -37 -253
22 -314 153 -28 61 -29 190 -3 239 46 84 125 144 210 162 47 9 81 5 148 -16z
m369 -9 c0 -8 -7 -15 -15 -15 -9 0 -12 6 -9 15 4 8 10 15 15 15 5 0 9 -7 9
-15z m-110 -120 c21 -22 22 -25 5 -25 -17 0 -17 -1 -2 -18 20 -22 22 -45 5
-39 -7 2 -13 10 -13 18 0 8 -8 25 -18 39 -34 48 -17 67 23 25z m179 -359 c28
-25 71 -139 71 -187 0 -75 -50 -139 -110 -139 -13 0 -19 -4 -14 -11 5 -8 -1
-10 -20 -7 -17 3 -26 1 -26 -7 0 -7 -15 -16 -34 -19 -41 -8 -133 24 -164 57
-40 42 -53 116 -32 171 16 43 92 118 145 143 60 29 151 28 184 -1z m-953 -17
c3 -6 1 -16 -5 -22 -9 -9 -14 -8 -21 3 -9 15 -4 30 10 30 5 0 12 -5 16 -11z
m268 -217 c12 -20 118 -35 206 -29 73 5 90 3 90 -8 0 -20 -60 -29 -147 -21
-54 4 -89 14 -131 36 -31 16 -49 30 -40 30 9 0 19 -4 22 -8z"/>
<path d="M2060 3154 c0 -3 6 -12 14 -19 12 -12 16 -12 25 -1 6 7 8 16 4 19 -8
8 -43 9 -43 1z"/>
<path d="M2179 2422 c-64 -33 -120 -100 -111 -134 15 -59 96 -148 134 -148 18
0 19 5 14 58 -3 31 -7 68 -9 82 -6 40 2 48 59 60 43 9 58 17 66 36 7 14 17 23
25 20 7 -3 13 -1 13 5 0 14 -79 49 -111 49 -15 0 -51 -13 -80 -28z m88 -48
c-3 -3 -12 -4 -19 -1 -8 3 -5 6 6 6 11 1 17 -2 13 -5z"/>
<path d="M2340 2370 c0 -5 5 -10 11 -10 5 0 7 5 4 10 -3 6 -8 10 -11 10 -2 0
-4 -4 -4 -10z"/>
<path d="M2371 2364 c0 -11 3 -14 6 -6 3 7 2 16 -1 19 -3 4 -6 -2 -5 -13z"/>
<path d="M2753 1559 c-43 -27 -42 -33 3 -14 20 8 38 15 40 15 2 0 4 5 4 10 0
15 -11 12 -47 -11z"/>
<path d="M4465 3690 c-44 -4 -96 -15 -115 -25 -46 -23 -110 -93 -146 -158
l-29 -52 -2 -813 c-2 -784 -2 -815 17 -865 25 -67 92 -143 166 -187 l58 -35
843 1 843 2 63 41 c79 51 117 92 153 161 l29 55 -3 824 c-2 799 -3 825 -22
869 -55 123 -145 182 -287 188 -87 3 -79 -3 28 -20 46 -8 151 -78 187 -125 60
-78 57 -31 57 -841 0 -410 -3 -780 -7 -823 -8 -90 -33 -142 -97 -200 -89 -80
-17 -74 -936 -78 l-820 -4 -47 22 c-62 28 -137 98 -158 148 -9 22 -20 65 -23
95 -4 30 -8 399 -9 820 l-3 765 27 50 c36 68 91 119 163 151 l60 26 273 -1
c172 0 270 3 267 9 -7 11 -405 11 -530 0z"/>
<path d="M5640 3691 c0 -11 173 -13 225 -2 30 7 7 9 -92 10 -73 0 -133 -3
-133 -8z"/>
<path d="M5125 3398 c-3 -13 -14 -57 -23 -98 -16 -69 -20 -76 -52 -92 -38 -20
-115 -24 -125 -8 -8 13 -106 70 -120 70 -14 0 -62 -44 -128 -117 -64 -71 -64
-70 0 -156 23 -33 43 -63 43 -68 0 -14 -30 -71 -47 -91 -9 -9 -41 -22 -72 -28
-113 -22 -101 -6 -101 -129 0 -60 3 -117 6 -126 4 -9 34 -34 68 -57 131 -87
140 -111 79 -209 -44 -73 -43 -77 66 -181 138 -131 201 -181 201 -158 0 8 6 8
20 0 17 -9 20 -8 20 10 0 22 46 69 68 70 6 0 12 5 12 11 0 6 10 9 22 7 19 -2
26 -15 39 -68 18 -67 32 -84 113 -140 20 -14 51 -37 69 -52 42 -35 50 -26 10
11 -18 16 -29 32 -26 35 11 11 23 6 23 -8 0 -17 27 -30 55 -27 16 3 17 1 6
-13 -11 -14 -11 -16 3 -16 9 0 16 7 16 15 0 9 9 15 23 15 40 0 65 11 70 31 3
10 12 19 21 19 9 0 16 7 16 15 0 8 5 15 10 15 6 0 10 7 10 16 0 8 4 13 10 9 5
-3 14 13 21 35 7 22 16 40 21 40 4 0 8 9 8 20 0 11 5 20 11 20 6 0 9 8 6 19
-4 16 1 18 37 14 48 -6 92 -24 90 -38 -4 -34 88 -44 105 -11 6 12 20 33 32 47
29 36 40 91 22 108 -12 11 -12 15 1 30 22 24 20 34 -14 89 -16 27 -30 54 -30
61 0 6 -5 11 -11 11 -8 0 -8 4 1 15 6 8 8 20 4 26 -4 7 -3 9 4 5 6 -3 13 2 17
13 4 14 14 18 37 17 18 0 33 5 36 13 3 8 0 11 -7 7 -6 -4 -11 -1 -11 6 0 9 14
15 38 16 44 3 62 18 63 52 1 64 -13 245 -20 258 -5 9 -42 27 -82 41 -70 25
-75 28 -88 67 -14 41 -14 42 24 108 22 36 43 66 47 66 5 0 1 14 -8 31 -21 41
-163 179 -184 179 -9 0 -40 -18 -70 -40 -56 -42 -72 -44 -142 -21 -29 10 -39
20 -49 49 -7 20 -25 65 -40 100 l-28 62 -120 0 c-117 0 -121 -1 -126 -22z
m235 -105 c7 -43 17 -86 22 -96 8 -16 128 -77 152 -77 6 0 44 23 85 50 40 28
76 50 80 50 3 0 33 -27 66 -60 47 -47 57 -62 47 -72 -7 -7 -12 -19 -12 -28 0
-15 -57 -102 -72 -108 -7 -3 18 -83 42 -134 14 -29 58 -48 115 -48 53 0 56 -8
53 -116 l-3 -99 -73 -20 c-84 -23 -105 -43 -123 -118 l-11 -47 51 -70 51 -70
-52 -58 c-74 -83 -75 -83 -153 -22 l-67 52 -57 -28 c-31 -15 -74 -33 -96 -39
l-40 -12 -7 -69 c-3 -38 -11 -81 -16 -95 -10 -26 -12 -26 -94 -24 l-83 3 -20
97 -20 97 -70 25 c-108 38 -121 41 -136 32 -12 -7 -11 -9 1 -9 13 -1 -21 -19
-44 -23 -6 -1 -21 -14 -34 -29 -13 -16 -29 -28 -36 -28 -21 0 -138 128 -130
142 4 7 27 41 51 75 23 34 43 68 43 75 0 7 -13 42 -28 78 l-28 65 -79 10 -80
10 -3 102 c-3 100 -2 103 20 107 142 29 137 26 178 123 l22 53 -46 67 c-25 38
-46 75 -46 83 0 16 109 130 124 130 5 0 23 -10 40 -23 17 -13 48 -34 69 -46
l38 -24 84 29 84 29 22 92 21 93 92 0 93 0 13 -77z"/>
<path d="M5218 2979 c-31 -5 -74 -17 -96 -28 -50 -25 -117 -94 -151 -153 -15
-27 -30 -45 -33 -42 -3 3 -5 -46 -4 -108 1 -97 5 -119 24 -156 35 -67 97 -127
155 -153 76 -34 202 -34 272 0 114 56 187 172 194 303 3 70 0 84 -27 143 -40
84 -112 157 -178 178 -68 22 -90 25 -156 16z m53 -70 c11 -6 33 -11 50 -11 16
-1 29 -4 29 -8 0 -3 15 -11 33 -18 81 -29 157 -132 157 -214 0 -104 -76 -234
-164 -281 -63 -33 -176 -31 -236 5 -60 35 -94 73 -121 133 -24 53 -30 156 -10
163 6 2 11 11 11 20 0 15 2 15 10 2 8 -13 10 -12 10 3 0 9 4 17 8 17 14 0 77
61 74 72 -1 5 7 12 18 15 11 3 20 9 20 14 0 5 7 9 15 9 17 0 20 25 5 35 -15
10 -2 25 23 26 20 1 21 2 2 7 l-20 5 20 8 c28 11 43 11 66 -2z"/>
<path d="M5198 2873 c6 -2 18 -2 25 0 6 3 1 5 -13 5 -14 0 -19 -2 -12 -5z"/>
<path d="M5490 3247 c0 -3 12 -12 26 -22 15 -9 23 -12 20 -6 -7 11 -46 35 -46
28z"/>
<path d="M8404 1809 c-4 -7 -1 -10 7 -7 8 3 22 1 32 -4 10 -5 17 -5 17 1 0 19
-45 27 -56 10z"/>
<path d="M7975 1780 c-3 -5 1 -10 9 -10 9 0 16 5 16 10 0 6 -4 10 -9 10 -6 0
-13 -4 -16 -10z"/>
<path d="M8493 1783 c9 -2 23 -2 30 0 6 3 -1 5 -18 5 -16 0 -22 -2 -12 -5z"/>
<path d="M7928 1763 c7 -3 16 -2 19 1 4 3 -2 6 -13 5 -11 0 -14 -3 -6 -6z"/>
<path d="M8109 2760 c-7 -35 -4 -48 7 -38 3 4 4 21 2 40 l-3 33 -6 -35z"/>
<path d="M8117 2657 c-3 -8 1 -14 9 -14 8 0 14 6 14 14 0 7 -4 13 -9 13 -5 0
-11 -6 -14 -13z"/>
<path d="M8147 2543 c-11 -10 -8 -65 3 -58 6 4 11 65 4 65 0 0 -4 -3 -7 -7z"/>
<path d="M8246 2397 c-5 -15 -6 -31 -2 -34 11 -11 18 5 14 34 l-4 28 -8 -28z"/>
<path d="M3530 2826 c-27 -44 -70 -82 -160 -140 -99 -64 -97 -79 28 -164 74
-51 98 -73 115 -108 17 -35 27 -45 54 -50 38 -7 58 5 67 42 8 29 40 64 60 64
8 0 18 10 22 23 3 12 26 40 50 61 24 21 44 46 44 54 0 8 -40 53 -88 101 -48
47 -100 101 -115 119 -35 41 -50 40 -77 -2z m55 -35 c6 -19 79 -91 148 -146
l37 -30 -77 -60 c-42 -33 -89 -77 -104 -98 l-28 -38 -25 38 c-14 22 -44 50
-67 63 -75 46 -119 80 -119 93 0 6 29 31 64 55 35 23 83 65 107 91 50 56 55
58 64 32z"/>
<path d="M6883 2770 c-46 -43 -100 -88 -122 -101 -22 -12 -42 -31 -45 -42 -6
-25 39 -69 123 -117 46 -27 67 -46 86 -82 31 -57 63 -64 92 -22 21 31 44 53
141 134 39 33 72 66 72 72 0 6 -19 27 -41 47 -131 113 -162 142 -180 165 -11
14 -26 26 -32 26 -7 -1 -49 -36 -94 -80z m205 -74 c50 -43 90 -82 86 -87 -3
-5 -31 -28 -62 -51 -31 -22 -76 -59 -99 -81 -24 -23 -44 -39 -46 -36 -41 58
-65 80 -120 113 -100 58 -100 55 -8 125 44 34 93 77 108 96 25 31 28 33 38 16
5 -10 52 -53 103 -95z"/>
<path d="M8660 2794 c0 -8 5 -12 10 -9 6 3 10 10 10 16 0 5 -4 9 -10 9 -5 0
-10 -7 -10 -16z"/>
<path d="M9820 1660 c0 -5 5 -10 11 -10 5 0 7 5 4 10 -3 6 -8 10 -11 10 -2 0
-4 -4 -4 -10z"/>
<path d="M9755 1581 c-3 -5 -1 -12 5 -16 5 -3 10 1 10 9 0 18 -6 21 -15 7z"/>
<path d="M8700 1148 c0 -149 -3 -139 48 -138 4 0 7 17 7 37 0 35 2 38 44 50
61 18 81 38 81 84 0 29 -6 43 -31 63 -17 14 -36 26 -42 27 -7 0 -33 4 -59 8
l-48 8 0 -139z m98 50 c17 -17 15 -45 -4 -52 -23 -9 -34 2 -34 35 0 30 17 38
38 17z"/>
<path d="M1952 1182 c3 -90 5 -102 31 -135 38 -51 84 -52 133 -3 l34 34 0 102
0 101 -27 -3 -28 -3 -3 -93 c-3 -101 -11 -115 -57 -94 -23 10 -24 17 -27 99
l-3 88 -28 3 -29 4 4 -100z"/>
<path d="M5828 1263 c-2 -10 -2 -71 0 -136 l4 -118 26 3 c26 3 27 7 32 68 l5
64 53 -61 c58 -66 81 -81 94 -61 4 7 7 65 6 128 l-3 115 -27 3 -28 3 0 -68 0
-68 -68 73 c-70 74 -87 84 -94 55z"/>
<path d="M6180 1269 c-50 -20 -100 -84 -100 -129 0 -37 37 -95 73 -115 29 -15
43 -17 88 -9 l54 9 3 68 3 68 -48 -3 c-36 -2 -49 -7 -51 -20 -3 -14 3 -18 27
-18 34 0 38 -8 19 -32 -23 -28 -46 -28 -78 -2 -37 32 -39 71 -5 108 28 30 51
33 77 9 17 -15 20 -15 34 -2 19 20 9 46 -27 64 -32 17 -35 17 -69 4z"/>
<path d="M8085 1262 c-75 -35 -99 -116 -56 -186 72 -117 221 -64 221 78 0 38
-6 52 -32 81 -41 44 -80 51 -133 27z m87 -69 c23 -28 28 -50 17 -82 -12 -34
-31 -41 -72 -28 -49 16 -60 58 -26 101 24 30 59 34 81 9z"/>
<path d="M8284 1255 c-3 -14 -5 -61 -3 -104 4 -72 7 -83 33 -110 37 -39 60
-46 97 -30 45 18 62 60 67 173 4 91 3 99 -12 93 -10 -4 -24 -7 -32 -7 -11 0
-14 -18 -14 -83 0 -85 -8 -107 -42 -107 -26 0 -38 31 -38 100 0 66 -12 100
-35 100 -8 0 -17 -11 -21 -25z"/>
<path d="M8905 1248 c-3 -18 -7 -65 -8 -105 -2 -69 -1 -73 32 -107 38 -39 65
-45 111 -21 52 27 60 49 60 163 l0 103 -27 -3 c-28 -3 -28 -3 -33 -96 -4 -67
-9 -95 -20 -102 -20 -13 -23 -12 -46 4 -16 12 -20 29 -22 105 -4 81 -6 91 -23
91 -13 0 -20 -10 -24 -32z"/>
<path d="M9126 1255 c-9 -35 -1 -45 35 -45 l29 0 0 -95 0 -95 30 0 30 0 0 95
0 95 35 0 c33 0 35 2 35 35 l0 35 -94 0 c-92 0 -94 0 -100 -25z"/>
<path d="M1387 1264 c-4 -4 -7 -61 -7 -126 l0 -119 33 3 32 3 0 120 0 120 -25
3 c-14 2 -29 0 -33 -4z"/>
<path d="M1483 1143 l2 -128 27 -3 c27 -3 27 -3 30 69 l3 73 43 -57 c46 -61
85 -93 102 -82 6 4 10 55 10 131 l0 124 -30 0 -29 0 -3 -72 -3 -73 -32 50
c-45 71 -70 95 -98 95 l-24 0 2 -127z"/>
<path d="M1740 1140 l0 -130 30 0 c28 0 30 2 30 39 0 37 2 39 37 46 82 15 111
61 78 125 -21 40 -43 50 -114 50 l-61 0 0 -130z m106 72 c6 -4 14 -17 18 -29
6 -19 2 -25 -19 -33 -34 -13 -45 -6 -45 29 0 39 18 52 46 33z"/>
<path d="M2174 1255 c-10 -24 4 -45 29 -45 23 0 24 -3 30 -91 3 -50 7 -92 9
-94 2 -2 14 -5 28 -7 l25 -3 -4 97 -3 97 33 3 c29 2 35 7 37 31 l3 27 -91 0
c-71 0 -92 -3 -96 -15z"/>
<path d="M4196 1154 c-3 -63 -3 -121 1 -128 5 -6 17 -12 28 -11 15 0 21 8 25
33 4 30 11 36 55 53 142 53 97 169 -65 169 l-37 0 -7 -116z m122 29 c2 -14 -5
-27 -22 -38 -32 -22 -46 -12 -46 31 0 34 1 35 33 32 24 -2 33 -8 35 -25z"/>
<path d="M4422 1138 c3 -125 4 -133 23 -133 17 0 20 8 23 48 4 58 16 57 55 -1
26 -39 61 -61 75 -47 3 3 1 14 -4 23 -6 9 -17 27 -25 40 -9 15 -11 26 -4 36
48 65 48 65 35 96 -21 51 -55 70 -122 70 l-59 0 3 -132z m112 66 c20 -8 21
-38 2 -53 -17 -14 -62 -5 -70 15 -14 35 23 55 68 38z"/>
<path d="M4704 1256 c-45 -20 -74 -62 -74 -108 0 -128 122 -182 207 -91 27 28
33 42 33 80 0 52 -26 95 -70 118 -35 18 -56 18 -96 1z m98 -70 c13 -19 9 -71
-8 -94 -35 -50 -114 -8 -114 60 0 23 6 32 33 43 33 14 77 10 89 -9z"/>
<path d="M4969 1256 c-36 -21 -79 -87 -79 -122 0 -64 66 -131 120 -120 16 3
43 9 59 12 30 6 46 27 35 45 -3 6 -30 9 -60 8 -61 -3 -94 18 -94 58 0 58 33
80 86 58 41 -17 64 -11 64 19 0 40 -84 67 -131 42z"/>
<path d="M5125 1143 l0 -123 83 0 83 0 -3 28 c-3 26 -5 27 -55 24 -44 -3 -53
-1 -53 12 0 18 7 21 63 31 28 4 37 11 37 25 0 17 -7 20 -50 20 -47 0 -50 2
-50 25 0 23 3 25 50 25 36 0 50 4 50 14 0 8 2 21 5 28 5 11 -10 14 -77 14
l-83 -1 0 -122z"/>
<path d="M5355 1246 c-31 -31 -41 -71 -24 -93 8 -9 33 -25 57 -35 42 -19 55
-44 27 -54 -8 -3 -30 3 -48 15 -36 22 -47 19 -47 -11 0 -58 110 -82 149 -32
43 54 36 92 -21 114 -45 18 -68 39 -61 56 6 16 34 19 49 4 15 -15 44 -1 44 21
0 12 -11 21 -37 28 -53 15 -61 14 -88 -13z"/>
<path d="M5553 1250 c-27 -16 -33 -26 -33 -53 0 -36 15 -54 68 -81 35 -18 45
-56 14 -56 -10 0 -22 4 -27 9 -6 5 -20 12 -32 16 -20 6 -23 3 -23 -24 0 -55
81 -73 138 -31 57 42 37 105 -43 136 -75 28 -46 64 33 39 19 -6 22 -4 22 18 0
48 -61 61 -117 27z"/>
<path d="M5728 1170 c-1 -55 -2 -112 -2 -127 -1 -23 4 -29 27 -31 l27 -3 0
130 0 131 -25 0 c-25 0 -25 0 -27 -100z"/>
<path d="M8500 1245 c0 -20 6 -27 30 -31 l30 -6 -7 -88 c-5 -83 -5 -88 16 -99
12 -7 26 -9 31 -6 6 3 10 49 10 101 l0 94 35 0 c32 0 35 2 35 30 l0 30 -90 0
c-90 0 -90 0 -90 -25z"/>
<path d="M2378 1185 c-6 -28 14 -50 37 -41 27 10 15 66 -15 66 -11 0 -19 -10
-22 -25z"/>
<path d="M2403 1103 c-7 -2 -13 -20 -13 -40 0 -27 4 -34 18 -31 12 2 18 14 20
41 3 36 0 41 -25 30z"/>
<path d="M1387 944 c-7 -7 8 -70 38 -157 30 -90 50 -96 74 -20 21 66 27 72 36
31 10 -46 33 -88 48 -88 7 0 22 37 35 88 26 102 28 142 8 142 -14 0 -19 -14
-31 -97 -4 -24 -10 -43 -15 -43 -4 0 -13 21 -20 48 -16 56 -26 72 -51 72 -18
0 -22 -8 -34 -67 -10 -48 -20 -41 -34 22 -11 50 -38 84 -54 69z"/>
<path d="M4467 883 c-63 -170 -61 -164 -47 -173 19 -12 27 -5 35 30 6 27 9 29
47 26 39 -3 58 -17 58 -43 0 -7 9 -13 20 -13 27 0 26 7 -15 108 -44 107 -56
132 -66 132 -4 0 -18 -30 -32 -67z m58 -60 c5 -20 3 -23 -19 -23 -30 0 -29 0
-16 36 11 29 23 24 35 -13z"/>
<path d="M7603 934 c-2 -5 -2 -59 -1 -120 3 -104 4 -109 26 -112 19 -3 22 1
22 30 0 44 8 54 50 63 33 7 49 20 50 38 0 4 -20 7 -44 7 -31 0 -46 5 -50 16
-11 30 -6 34 48 34 52 0 66 9 66 40 0 13 -162 17 -167 4z"/>
<path d="M7833 938 c-14 -17 -71 -176 -75 -208 -2 -19 1 -25 17 -25 13 0 21 8
23 23 2 13 10 22 21 22 10 0 32 3 48 6 27 5 32 3 41 -25 8 -21 18 -31 31 -31
30 0 26 19 -23 140 -41 103 -61 126 -83 98z m33 -105 c20 -27 17 -33 -16 -33
-28 0 -29 1 -18 25 13 30 17 30 34 8z"/>
<path d="M7990 830 l0 -120 25 0 c23 0 25 4 25 40 0 22 4 40 8 40 4 0 28 -20
52 -45 76 -77 111 -53 40 28 -22 25 -40 51 -40 59 0 8 16 29 35 48 40 38 45
60 14 60 -21 0 -67 -39 -86 -75 -15 -27 -24 -15 -30 40 -5 35 -10 45 -24 45
-18 0 -19 -9 -19 -120z"/>
<path d="M1007 933 c-4 -3 -7 -53 -7 -109 0 -90 2 -103 18 -106 14 -3 19 8 27
61 l10 65 45 -62 c77 -105 92 -96 88 49 -3 90 -5 104 -20 107 -16 3 -18 -5
-18 -69 0 -72 0 -73 -17 -49 -9 14 -34 46 -56 73 -37 45 -55 55 -70 40z"/>
<path d="M1220 878 c0 -35 3 -87 6 -115 l7 -53 68 0 c38 0 69 4 69 9 0 31 -14
41 -56 41 -24 0 -44 4 -44 8 0 18 26 32 57 32 26 0 33 4 33 19 0 17 -8 20 -47
23 -40 3 -48 6 -48 23 0 16 8 21 40 25 48 7 65 16 65 36 0 11 -16 14 -75 14
l-75 0 0 -62z"/>
<path d="M1692 928 c-47 -23 -37 -102 15 -114 50 -10 53 -13 53 -39 0 -29 -25
-34 -56 -10 -42 32 -62 3 -23 -36 15 -15 30 -19 61 -17 85 6 106 100 28 123
-64 19 -76 36 -39 56 15 8 24 8 32 0 16 -16 37 -14 37 3 0 19 -39 46 -65 45
-11 0 -30 -5 -43 -11z"/>
<path d="M1956 858 c-46 -98 -56 -148 -32 -148 9 0 21 11 27 24 8 16 22 26 47
29 41 7 50 3 62 -29 10 -25 34 -32 45 -13 8 12 -90 219 -103 219 -5 0 -26 -37
-46 -82z m70 -15 c19 -26 17 -30 -16 -35 -32 -5 -36 2 -20 33 13 24 19 24 36
2z"/>
<path d="M2487 933 c-4 -3 -7 -55 -7 -115 0 -83 3 -109 13 -106 8 3 13 38 15
116 2 102 -2 125 -21 105z"/>
<path d="M2730 825 l0 -115 60 0 c43 0 60 4 60 13 0 21 -22 37 -52 37 l-28 0
0 90 c0 83 -1 90 -20 90 -19 0 -20 -7 -20 -115z"/>
<path d="M4029 835 c-27 -58 -49 -110 -49 -115 0 -6 11 -10 24 -10 17 0 26 7
30 26 6 23 10 25 59 22 45 -3 52 -6 55 -25 2 -12 10 -24 18 -27 27 -10 27 25
1 82 -14 32 -35 78 -46 105 -11 26 -25 47 -31 47 -6 0 -34 -47 -61 -105z m76
-7 c6 -25 5 -28 -19 -28 -30 0 -29 -2 -15 39 12 35 24 31 34 -11z"/>
<path d="M4630 825 l0 -115 65 0 c63 0 65 1 65 25 0 23 -4 25 -45 25 l-45 0 0
74 c0 83 -6 106 -26 106 -11 0 -14 -23 -14 -115z"/>
<path d="M6405 928 c-2 -7 -6 -39 -7 -70 l-3 -57 -53 65 c-29 35 -56 64 -61
64 -10 0 -24 -180 -15 -203 3 -9 12 -17 20 -17 10 0 14 15 14 58 0 32 3 62 7
65 3 4 20 -12 36 -36 39 -54 78 -97 89 -97 14 0 5 233 -9 238 -7 2 -15 -2 -18
-10z"/>
<path d="M6512 933 c-58 -4 -63 -6 -60 -26 2 -17 10 -21 38 -22 l35 0 0 -85
c0 -78 2 -85 20 -85 18 0 20 7 20 85 l0 85 33 -1 c27 -2 32 1 32 21 0 22 -19
37 -43 33 -7 -1 -40 -3 -75 -5z"/>
<path d="M8202 821 l3 -116 72 0 c69 0 73 1 73 23 0 19 -5 22 -37 22 -46 0
-66 11 -57 33 4 10 20 17 47 19 30 2 43 8 45 21 3 14 -4 17 -47 17 -37 0 -51
4 -51 14 0 21 22 34 65 38 33 2 41 7 43 26 3 22 1 22 -78 21 l-81 -1 3 -117z"/>
<path d="M8523 918 c-18 -13 -40 -38 -49 -57 -33 -69 27 -161 106 -161 31 0
44 7 74 40 42 46 48 97 18 143 -41 61 -94 73 -149 35z m99 -55 c24 -22 23 -62
-4 -90 -38 -41 -88 -23 -103 39 -13 53 64 90 107 51z"/>
<path d="M8720 820 c0 -113 1 -120 20 -120 17 0 20 7 20 45 0 25 4 45 9 45 5
0 26 -20 47 -45 52 -64 104 -59 54 5 -25 32 -25 43 0 65 56 51 -9 125 -110
125 l-40 0 0 -120z m98 58 c15 -15 16 -45 1 -53 -21 -14 -59 5 -59 29 0 12 3
26 7 29 10 11 38 8 51 -5z"/>
<path d="M9200 824 c0 -61 2 -113 4 -115 2 -2 34 -2 70 -1 62 4 66 5 66 28 0
22 -3 24 -47 21 -43 -2 -48 0 -51 21 -3 20 1 22 42 22 25 0 47 5 48 10 4 33 2
34 -45 31 -46 -2 -48 -1 -45 21 3 20 9 23 56 26 28 2 53 7 54 13 5 33 2 34
-74 34 l-78 0 0 -111z"/>
<path d="M9446 911 c-24 -46 -76 -180 -76 -196 0 -26 38 -17 52 13 7 15 19 27
26 26 6 -1 26 -2 42 -2 22 -2 34 -9 42 -27 12 -27 48 -35 48 -11 0 19 -68 197
-82 213 -17 21 -36 15 -52 -16z m54 -103 c0 -4 -11 -8 -25 -8 -28 0 -30 3 -14
32 11 21 12 21 25 3 8 -10 14 -22 14 -27z"/>
<path d="M9602 823 l3 -118 73 -3 72 -3 0 31 c0 29 -1 30 -50 30 l-50 0 0 90
c0 90 0 90 -25 90 l-26 0 3 -117z"/>
<path d="M2173 923 c-35 -7 -53 -41 -53 -100 0 -81 11 -99 63 -107 50 -8 97 6
97 29 0 11 -11 15 -44 15 -56 0 -78 20 -74 68 2 29 8 37 32 45 20 7 35 6 48
-2 25 -15 28 -14 28 12 0 42 -28 53 -97 40z"/>
<path d="M2297 923 c-4 -3 -7 -15 -7 -25 0 -14 8 -18 35 -18 l35 0 0 -86 c0
-76 2 -85 18 -82 14 3 17 16 20 86 l3 82 29 0 c25 0 30 4 30 25 0 25 -1 25
-78 25 -43 0 -82 -3 -85 -7z"/>
<path d="M2863 820 l2 -110 58 0 c50 0 57 2 57 19 0 16 -8 20 -37 23 -30 2
-39 8 -41 25 -3 18 2 22 30 25 22 2 34 9 36 21 3 14 -4 17 -32 17 -32 0 -36 3
-36 25 0 21 5 25 29 25 39 0 61 9 61 26 0 11 -16 14 -65 14 l-64 0 2 -110z"/>
<path d="M4217 831 c-4 -55 -4 -107 -1 -116 9 -23 28 -13 29 16 1 13 2 46 3
74 l2 49 17 -24 c44 -67 88 -120 99 -120 7 0 13 31 17 83 11 129 10 137 -13
137 -18 0 -20 -7 -20 -72 -1 -59 -3 -69 -12 -53 -16 30 -98 125 -107 125 -5 0
-11 -45 -14 -99z"/>
<path d="M4774 903 c4 -16 12 -67 19 -115 9 -71 14 -88 28 -88 28 0 37 128 12
176 -10 21 -29 41 -42 46 -22 8 -23 6 -17 -19z"/>
<path d="M4867 923 c-4 -3 -7 -14 -7 -23 0 -14 9 -16 55 -12 79 6 83 -14 17
-81 -28 -29 -54 -64 -57 -78 l-7 -27 89 5 c93 6 109 12 100 37 -5 12 -16 14
-52 9 -50 -6 -57 3 -24 33 24 22 79 113 79 132 0 9 -25 12 -93 12 -52 0 -97
-3 -100 -7z"/>
<path d="M5085 868 c-4 -35 -5 -83 -3 -108 l3 -45 65 0 c54 0 65 3 68 18 3 14
-4 17 -47 17 -43 0 -51 3 -51 19 0 21 19 31 60 31 28 0 48 24 29 36 -6 3 -26
3 -45 -1 -34 -6 -35 -5 -32 22 3 25 8 29 48 33 32 4 46 10 48 23 3 15 -5 17
-66 17 l-70 0 -7 -62z"/>
<path d="M5356 890 c-49 -54 -50 -98 -2 -146 25 -25 43 -34 68 -34 37 0 58 15
58 41 0 14 -8 16 -44 12 -39 -5 -46 -2 -61 21 -37 56 11 110 80 89 31 -10 35
-9 35 7 0 22 -41 50 -73 50 -16 0 -38 -14 -61 -40z"/>
<path d="M5543 895 c-33 -33 -35 -39 -30 -82 9 -80 87 -129 141 -88 53 40 70
104 39 155 -35 60 -99 66 -150 15z m109 -32 c10 -9 18 -27 18 -40 0 -24 -40
-73 -60 -73 -23 0 -60 49 -60 79 0 48 63 69 102 34z"/>
<path d="M5734 904 c-7 -28 2 -169 12 -185 13 -22 24 7 24 64 0 69 2 69 59
-15 21 -29 45 -54 54 -56 15 -3 17 8 17 98 l0 101 22 -15 c12 -9 32 -16 44
-16 17 0 22 -6 21 -27 -3 -92 3 -143 19 -143 13 0 15 13 12 85 l-3 85 33 0
c28 0 32 3 32 25 l0 26 -105 -2 c-102 -1 -105 -2 -111 -25 -3 -13 -3 -40 0
-59 8 -39 -7 -47 -24 -14 -16 28 -80 99 -91 99 -5 0 -12 -12 -15 -26z"/>
<path d="M6102 823 c2 -79 6 -108 16 -107 6 1 35 2 62 3 37 1 50 5 50 16 0 11
-12 15 -45 15 -41 0 -45 2 -45 24 0 22 5 25 42 28 31 2 44 8 46 21 3 14 -4 17
-41 17 -36 0 -46 4 -50 20 -5 18 0 20 44 20 46 0 49 2 49 25 0 24 -2 25 -66
25 l-65 0 3 -107z"/>
<path d="M9002 818 c2 -93 6 -113 18 -113 10 0 17 13 20 35 7 50 33 50 66 1
26 -40 56 -53 69 -30 4 6 -2 21 -14 33 -26 28 -26 44 -1 76 26 33 25 52 -5 84
-21 23 -32 26 -90 26 l-66 0 3 -112z m116 40 c5 -25 -42 -46 -63 -28 -8 7 -15
21 -15 32 0 16 6 19 37 16 26 -2 39 -8 41 -20z"/>
<path d="M2567 894 c-20 -20 -27 -37 -27 -65 0 -76 35 -112 111 -113 34 -1 43
3 50 22 8 21 6 22 -40 22 -37 0 -52 5 -69 23 -45 48 -13 97 61 97 31 0 38 3
35 18 -2 13 -15 18 -49 20 -38 2 -50 -1 -72 -24z"/>
</g>
</svg>
